<?xml version="1.0" encoding="UTF-8"?>
<svg width="24px" height="24px" viewBox="0 0 24 24" version="1.1" xmlns="http://www.w3.org/2000/svg" xmlns:xlink="http://www.w3.org/1999/xlink">
    <title>6258F19B-BE43-4C7B-B51A-F149E2638EAF</title>
    <g id="🎛-Styleguide" stroke="none" stroke-width="1" fill="none" fill-rule="evenodd">
        <g id="Icons" transform="translate(-128.000000, -656.000000)" fill="currentColor">
            <g id="Icon" transform="translate(128.000000, 656.000000)">
                <path d="M3,22 C2.44771525,22 2,21.5522847 2,21 L2,3 C2,2.44771525 2.44771525,2 3,2 L21,2 L21,2 C21.5522847,2 22,2.44771525 22,3 L22,21 L22,21 C22,21.5128358 21.6139598,21.9355072 21.1166211,21.9932723 L21,22 L21,22 L3,22 L3,22 Z M20,20 L20,4 L16,4 L16,20 L20,20 Z M14,4 L10,4 L10,20 L14,20 L14,4 Z M8,4 L4,4 L4,20 L8,20 L8,4 Z" id="★-Icon"></path>
            </g>
        </g>
    </g>
</svg>
