<?xml version="1.0" encoding="UTF-8"?>
<svg width="24px" height="24px" viewBox="0 0 24 24" version="1.1" xmlns="http://www.w3.org/2000/svg" xmlns:xlink="http://www.w3.org/1999/xlink">
    <title>15BD926F-8718-4C14-B5CD-E131A7D37704</title>
    <g id="🎛-Styleguide" stroke="none" stroke-width="1" fill="none" fill-rule="evenodd">
        <g id="Icons" transform="translate(-176.000000, -656.000000)" fill="currentColor">
            <g id="Icon" transform="translate(176.000000, 656.000000)">
                <path d="M2,22 C1.44771525,22 1,21.5522847 1,21 L1,3 C1,2.44771525 1.44771525,2 2,2 L22,2 L22,2 C22.5522847,2 23,2.44771525 23,3 L23,21 L23,21 C23,21.5128358 22.6139598,21.9355072 22.1166211,21.9932723 L22,22 L22,22 L2,22 L2,22 Z M21,20 L21,4 L18,4 L18,20 L21,20 Z M6,4 L3,4 L3,20 L6,20 L6,4 Z M11,4 L8,4 L8,20 L11,20 L11,4 Z M16,4 L13,4 L13,20 L16,20 L16,4 Z" id="★-Icon"></path>
            </g>
        </g>
    </g>
</svg>
