<?xml version="1.0" encoding="UTF-8"?>
<svg width="24px" height="24px" viewBox="0 0 24 24" version="1.1" xmlns="http://www.w3.org/2000/svg" xmlns:xlink="http://www.w3.org/1999/xlink">
    <title>0893DF79-2F40-4D8F-9511-57F1CBEFAF9A</title>
    <g id="🎛-Styleguide" stroke="none" stroke-width="1" fill="none" fill-rule="evenodd">
        <g id="Icons" transform="translate(-272.000000, -896.000000)">
            <g id="Icon" transform="translate(272.000000, 896.000000)">
                <path d="M19.875,3 L4.125,3 C3.50367966,3 3,3.50367966 3,4.125 L3,19.875 C3,20.4963203 3.50367966,21 4.125,21 L19.875,21 C20.4963203,21 21,20.4963203 21,19.875 L21,4.125 C21,3.50367966 20.4963203,3 19.875,3 Z" id="Path" fill="#1EA5C7"></path>
                <path d="M17,11 C17.5522847,11 18,11.4477153 18,12 C18,12.5128358 17.6139598,12.9355072 17.1166211,12.9932723 L17,13 L7,13 C6.44771525,13 6,12.5522847 6,12 C6,11.4871642 6.38604019,11.0644928 6.88337887,11.0067277 L7,11 L17,11 Z" id="Path-4" fill="#FFFFFF" fill-rule="nonzero"></path>
            </g>
        </g>
    </g>
</svg>