<?xml version="1.0" encoding="UTF-8"?>
<svg width="24px" height="24px" viewBox="0 0 24 24" version="1.1" xmlns="http://www.w3.org/2000/svg" xmlns:xlink="http://www.w3.org/1999/xlink">
    <title>798891ED-8E83-4B08-BA22-3E1E5505C3D2</title>
    <g id="🎛-Styleguide" stroke="none" stroke-width="1" fill="none" fill-rule="evenodd">
        <g id="Icons" transform="translate(-320.000000, -752.000000)" fill="currentColor">
            <g id="Icon" transform="translate(320.000000, 752.000000)">
                <path d="M21,3 C21.5522847,3 22,3.44771525 22,4 L22,4 L22,16 C22,16.5522847 21.5522847,17 21,17 L21,17 L13.167,17 L13.5,19 L16,19 L16,21 L8,21 L8,19 L10.5,19 L10.833,17 L3,17 C2.48716416,17 2.06449284,16.6139598 2.00672773,16.1166211 L2,16 L2,4 C2,3.44771525 2.44771525,3 3,3 L3,3 Z M20,14 L4,14 L4,15 L20,15 L20,14 Z M20,5 L4,5 L4,12 L20,12 L20,5 Z" id="★-Icon"></path>
            </g>
        </g>
    </g>
</svg>
