<?xml version="1.0" encoding="UTF-8"?>
<svg width="24px" height="24px" viewBox="0 0 24 24" version="1.1" xmlns="http://www.w3.org/2000/svg" xmlns:xlink="http://www.w3.org/1999/xlink">
    <title>9F659CEA-828C-48FC-BBA5-2CEC94D620CB</title>
    <g id="🎛-Styleguide" stroke="none" stroke-width="1" fill="none" fill-rule="evenodd">
        <g id="Icons" transform="translate(-272.000000, -800.000000)" fill="#2EA81B" fill-rule="nonzero">
            <g id="Icon" transform="translate(272.000000, 800.000000)">
                <path d="M16.6212182,0.00133451073 L17.2005011,0.0119713912 L17.7222154,0.0331449609 C18.9589245,0.0991626236 19.7052509,0.262981614 20.3311198,0.517250937 L20.5759198,0.623765259 L20.8131322,0.739823069 C20.8523276,0.75995552 20.891426,0.78048126 20.9305371,0.801398111 C21.9083149,1.32431939 22.6756806,2.09168511 23.1986019,3.06946289 L23.2601769,3.18686782 L23.3762347,3.42408019 L23.4827491,3.6688802 C23.7200671,4.2530245 23.8785928,4.94210069 23.9523497,6.03687164 L23.9787524,6.53177451 C23.982282,6.61869035 23.9853748,6.70789527 23.9880286,6.79949889 L23.9986655,7.37878179 L23.9996661,7.53321416 L23.9996661,7.53321416 L24,16.3083444 L23.9946707,16.9183846 C23.9928971,17.0148952 23.9906824,17.1088975 23.9880286,17.2005011 L23.966855,17.7222154 C23.9008374,18.9589245 23.7370184,19.7052509 23.4827491,20.3311198 L23.3762347,20.5759198 L23.2601769,20.8131322 C23.2400445,20.8523276 23.2195187,20.891426 23.1986019,20.9305371 C22.6756806,21.9083149 21.9083149,22.6756806 20.9305371,23.1986019 L20.8131322,23.2601769 L20.5759198,23.3762347 L20.3311198,23.4827491 C19.7469755,23.7200671 19.0578993,23.8785928 17.9631284,23.9523497 L17.4682255,23.9787524 C17.3813097,23.982282 17.2921047,23.9853748 17.2005011,23.9880286 L16.6212182,23.9986655 L16.4667858,23.9996661 L16.4667858,23.9996661 L7.6916556,24 L7.08161544,23.9946707 C6.98510482,23.9928971 6.89110251,23.9906824 6.79949889,23.9880286 L6.27778464,23.966855 C5.04107551,23.9008374 4.29474909,23.7370184 3.6688802,23.4827491 L3.42408019,23.3762347 L3.18686782,23.2601769 C3.14767244,23.2400445 3.108574,23.2195187 3.06946289,23.1986019 C2.09168511,22.6756806 1.32431939,21.9083149 0.801398111,20.9305371 L0.739823069,20.8131322 L0.623765259,20.5759198 L0.517250937,20.3311198 C0.279932902,19.7469755 0.121407157,19.0578993 0.0476503331,17.9631284 L0.0212476241,17.4682255 C0.0177179698,17.3813097 0.0146251662,17.2921047 0.0119713912,17.2005011 L0.00133451073,16.6212182 L0.00133451073,7.37878179 L0.0119713912,6.79949889 L0.0331449609,6.27778464 C0.0991626236,5.04107551 0.262981614,4.29474909 0.517250937,3.6688802 L0.623765259,3.42408019 L0.739823069,3.18686782 C0.75995552,3.14767244 0.78048126,3.108574 0.801398111,3.06946289 C1.32431939,2.09168511 2.09168511,1.32431939 3.06946289,0.801398111 L3.18686782,0.739823069 L3.42408019,0.623765259 L3.6688802,0.517250937 C4.2530245,0.279932902 4.94210069,0.121407157 6.03687164,0.0476503331 L6.53177451,0.0212476241 C6.61869035,0.0177179698 6.70789527,0.0146251662 6.79949889,0.0119713912 L7.37878179,0.00133451073 L16.6212182,0.00133451073 Z M7.6916556,2 L7.14203186,2.00373514 L6.65433662,2.01531435 L6.22227171,2.03529833 C5.47729826,2.07998264 4.98104094,2.16986778 4.55885609,2.32050122 L4.33486977,2.408783 C4.22549993,2.45602964 4.11927778,2.50800502 4.01266061,2.56502451 C3.38341978,2.90154619 2.90154619,3.38341978 2.56502451,4.01266061 C2.50800502,4.11927778 2.45602964,4.22549993 2.408783,4.33486977 L2.32050122,4.55885609 C2.18356173,4.9426605 2.09682744,5.38768183 2.04861733,6.02513244 L2.02422071,6.43174401 L2.0085092,6.89083681 L2.0009221,7.40870903 L2.0009221,16.591291 L2.0085092,17.1091632 L2.02422071,17.568256 L2.04861733,17.9748676 C2.09682744,18.6123182 2.18356173,19.0573395 2.32050122,19.4411439 L2.408783,19.6651302 C2.45602964,19.7745001 2.50800502,19.8807222 2.56502451,19.9873394 C2.90154619,20.6165802 3.38341978,21.0984538 4.01266061,21.4349755 C4.11927778,21.491995 4.22549993,21.5439704 4.33486977,21.591217 L4.55885609,21.6794988 C4.9426605,21.8164383 5.38768183,21.9031726 6.02513244,21.9513827 L6.43174401,21.9757793 L6.89083681,21.9914908 L7.40870903,21.9990779 L16.591291,21.9990779 L17.1091632,21.9914908 L17.568256,21.9757793 L17.9748676,21.9513827 C18.6123182,21.9031726 19.0573395,21.8164383 19.4411439,21.6794988 L19.6651302,21.591217 C19.7745001,21.5439704 19.8807222,21.491995 19.9873394,21.4349755 C20.6165802,21.0984538 21.0984538,20.6165802 21.4349755,19.9873394 C21.491995,19.8807222 21.5439704,19.7745001 21.591217,19.6651302 L21.6794988,19.4411439 C21.8164383,19.0573395 21.9031726,18.6123182 21.9513827,17.9748676 L21.9757793,17.568256 L21.9914908,17.1091632 L21.9990779,16.591291 L21.9990779,7.40870903 L21.9914908,6.89083681 L21.9757793,6.43174401 L21.9513827,6.02513244 C21.9031726,5.38768183 21.8164383,4.9426605 21.6794988,4.55885609 L21.591217,4.33486977 C21.5439704,4.22549993 21.491995,4.11927778 21.4349755,4.01266061 C21.0984538,3.38341978 20.6165802,2.90154619 19.9873394,2.56502451 C19.8807222,2.50800502 19.7745001,2.45602964 19.6651302,2.408783 L19.4411439,2.32050122 C19.0573395,2.18356173 18.6123182,2.09682744 17.9748676,2.04861733 L17.568256,2.02422071 L17.1091632,2.0085092 L16.591291,2.0009221 L7.6916556,2 Z M17,5 C18.1045695,5 19,5.8954305 19,7 L19,7 L19,13.5 C19,14.6045695 18.1045695,15.5 17,15.5 L17,15.5 L13,15.5 L9,19 L9,15.5 L7,15.5 C5.8954305,15.5 5,14.6045695 5,13.5 L5,13.5 L5,7 C5,5.8954305 5.8954305,5 7,5 L7,5 Z" id="★-Icon"></path>
            </g>
        </g>
    </g>
</svg>