<?xml version="1.0" encoding="UTF-8"?>
<svg width="24px" height="24px" viewBox="0 0 24 24" version="1.1" xmlns="http://www.w3.org/2000/svg" xmlns:xlink="http://www.w3.org/1999/xlink">
    <title>54866304-1E61-4D98-812D-043D30F8B51B</title>
    <g id="🎛-Styleguide" stroke="none" stroke-width="1" fill="none" fill-rule="evenodd">
        <g id="Icons" transform="translate(-32.000000, -512.000000)" fill="currentColor">
            <g id="Icon" transform="translate(32.000000, 512.000000)">
                <path d="M16.3786797,3.20710678 C17.5502525,2.03553391 19.4497475,2.03553391 20.6213203,3.20710678 L20.6213203,3.20710678 L21.7928932,4.37867966 C22.9644661,5.55025253 22.9644661,7.44974747 21.7928932,8.62132034 L21.7928932,8.62132034 L10.7071068,19.7071068 C10.5675062,19.8467073 10.3897073,19.9418625 10.1961161,19.9805807 L10.1961161,19.9805807 L5.19611614,20.9805807 C4.496395,21.1205249 3.8794751,20.503605 4.01941932,19.8038839 L4.01941932,19.8038839 L5.01941932,14.8038839 C5.05813755,14.6102927 5.15329267,14.4324938 5.29289322,14.2928932 L5.29289322,14.2928932 Z M14.499444,7.91342712 L6.921,15.493 L6.274,18.725 L9.506,18.079 L17.085444,10.4994271 L14.499444,7.91342712 Z M19.2071068,4.62132034 C18.8165825,4.23079605 18.1834175,4.23079605 17.7928932,4.62132034 L17.7928932,4.62132034 L15.913444,6.49942712 L18.499444,9.08542712 L20.3786797,7.20710678 C20.7091233,6.87666315 20.7599608,6.37249453 20.5311921,5.98859705 L20.4618683,5.88710056 L20.3786797,5.79289322 Z" id="★-Icon"></path>
            </g>
        </g>
    </g>
</svg>
