<?xml version="1.0" encoding="UTF-8"?>
<svg width="24px" height="24px" viewBox="0 0 24 24" version="1.1" xmlns="http://www.w3.org/2000/svg" xmlns:xlink="http://www.w3.org/1999/xlink">
    <title>C0DD1C34-24C5-4D76-95D8-59AF0F693AF3</title>
    <defs>
        <path d="M11,0 C17.07475,0 22,4.92525 22,11 C22,17.07475 17.07475,22 11,22 C4.923875,22 0,17.07475 0,11 C0,4.92525 4.923875,0 11,0 Z M11,2 C6.028625,2 2,6.02975 2,11 C2,15.97025 6.028625,20 11,20 C15.97025,20 20,15.97025 20,11 C20,6.02975 15.97025,2 11,2 Z M12.004611,9.5 C12.2782068,9.5 12.5,9.71637201 12.5,9.99209595 L12.5,16.5079041 C12.5,16.7796811 12.2842474,17 12.004611,17 L9.99538898,17 C9.7217932,17 9.5,16.783628 9.5,16.5079041 L9.5,9.99209595 C9.5,9.72031886 9.7157526,9.5 9.99538898,9.5 L12.004611,9.5 Z M11.5010434,5 C12.0527519,5 12.5,5.44266033 12.5,5.99895656 L12.5,7.00104344 C12.5,7.55275191 12.0573397,8 11.5010434,8 L10.4989566,8 C9.94724809,8 9.5,7.55733967 9.5,7.00104344 L9.5,5.99895656 C9.5,5.44724809 9.94266033,5 10.4989566,5 L11.5010434,5 Z" id="path-1"></path>
    </defs>
    <g id="🎛-Styleguide" stroke="none" stroke-width="1" fill="none" fill-rule="evenodd">
        <g id="Icons" transform="translate(-320.000000, -512.000000)">
            <g id="Icon" transform="translate(321.000000, 513.000000)">
                <mask id="mask-2" fill="white">
                    <use xlink:href="#path-1"></use>
                </mask>
                <use fill="currentColor" xlink:href="#path-1"></use>
            </g>
        </g>
    </g>
</svg>
