<?xml version="1.0" encoding="UTF-8"?>
<svg width="24px" height="24px" viewBox="0 0 24 24" version="1.1" xmlns="http://www.w3.org/2000/svg" xmlns:xlink="http://www.w3.org/1999/xlink">
    <title>24E23A30-2382-4144-AE25-2B857AC5E8A9</title>
    <g id="🎛-Styleguide" stroke="none" stroke-width="1" fill="none" fill-rule="evenodd">
        <g id="Icons" transform="translate(-272.000000, -560.000000)" fill="currentColor">
            <g id="Icon" transform="translate(272.000000, 560.000000)">
                <path d="M20,3 C20.5522847,3 21,3.44771525 21,4 L21,6 L22,6 C22.5522847,6 23,6.44771525 23,7 L23,22 C23,22.5522847 22.5522847,23 22,23 L6,23 C5.44771525,23 5,22.5522847 5,22 L5,21 L3,21 C2.44771525,21 2,20.5522847 2,20 L2,4 C2,3.44771525 2.44771525,3 3,3 L20,3 Z M19,5 L4,5 L4,19 L19,19 L19,5 Z M8.56428881,8.17586863 L8.65079137,8.24267535 L14,12.827932 L14,9.00193196 C14,8.48909612 14.3860402,8.0664248 14.8833789,8.00865969 L15,8.00193196 C15.5128358,8.00193196 15.9355072,8.38797215 15.9932723,8.88531083 L16,9.00193196 L16,15.001932 C16,15.8191394 15.0831283,16.2763715 14.4357112,15.8279953 L14.3492086,15.7611886 L9,11.175932 L9,15.001932 C9,15.5147678 8.61395981,15.9374391 8.11662113,15.9952042 L8,16.001932 C7.48716416,16.001932 7.06449284,15.6158918 7.00672773,15.1185531 L7,15.001932 L7,9.00193196 C7,8.18472453 7.91687171,7.72749245 8.56428881,8.17586863 Z" id="★-Icon"></path>
            </g>
        </g>
    </g>
</svg>
