<?xml version="1.0" encoding="UTF-8"?>
<svg width="24px" height="24px" viewBox="0 0 24 24" version="1.1" xmlns="http://www.w3.org/2000/svg" xmlns:xlink="http://www.w3.org/1999/xlink">
    <title>B5ADA2AE-610E-4591-A3CA-457BBF8515E6</title>
    <g id="🎛-Styleguide" stroke="none" stroke-width="1" fill="none" fill-rule="evenodd">
        <g id="Icons" transform="translate(-128.000000, -848.000000)" fill="currentColor">
            <g id="Icon" transform="translate(128.000000, 848.000000)">
                <path d="M18,0 L18,11 L16,13 L16,2 L2,2 L2,21.56 L5.04876668,20.9506389 L9,21.938 L12.9512333,20.9506389 L16,21.56 L16.0005963,20.4570771 C16.7205826,20.3450355 17.4335706,20.0161769 17.9748737,19.4748737 L18,19.448 L18,24 L13,23 L9,24 L5,23 L0,24 L0,0 L18,0 Z M23.5606602,9.43933983 C24.109835,9.98851461 24.1441584,10.857577 23.6636304,11.4467378 L23.5606602,11.5606602 L16.5606602,18.5606602 C16.0114854,19.109835 15.142423,19.1441584 14.5532622,18.6636304 L14.4393398,18.5606602 L10.9393398,15.0606602 C10.3535534,14.4748737 10.3535534,13.5251263 10.9393398,12.9393398 C11.4885146,12.390165 12.357577,12.3558416 12.9467378,12.8363696 L13.0606602,12.9393398 L15.5,15.379 L21.4393398,9.43933983 C22.0251263,8.85355339 22.9748737,8.85355339 23.5606602,9.43933983 Z M14,6 L14,9 L4,9 L4,6 L14,6 Z" id="★-Icon"></path>
            </g>
        </g>
    </g>
</svg>
