<?xml version="1.0" encoding="UTF-8"?>
<svg width="24px" height="24px" viewBox="0 0 24 24" version="1.1" xmlns="http://www.w3.org/2000/svg" xmlns:xlink="http://www.w3.org/1999/xlink">
    <title>1277E829-A7A8-4931-8F63-414E87F16471</title>
    <g id="🎛-Styleguide" stroke="none" stroke-width="1" fill="none" fill-rule="evenodd">
        <g id="Icons" transform="translate(-272.000000, -848.000000)" fill="currentColor">
            <g id="Icon" transform="translate(272.000000, 848.000000)">
                <path d="M3,4 L3,4 L3,4 L3,5 C3,13.836556 10.163444,21 19,21 L20,21 L20,21 C20.5522847,21 21,20.5522847 21,20 L21,16.8672954 C21,16.369645 20.6340701,15.9477243 20.1414214,15.8773459 L19.0652476,15.7236068 C18.0238617,15.5748374 16.9979756,15.3326585 16,15 L15.3227887,14.7742629 C14.8506761,14.616892 14.3346897,14.8306206 14.1121337,15.2757326 L13.5,16.5 L13.5,16.5 C10.9035574,15.2017787 8.79822128,13.0964426 7.5,10.5 L7.5,10.5 L7.5,10.5 L8.72426741,9.88786629 C9.16937944,9.66531028 9.38310798,9.14932394 9.22573711,8.67721134 L9,8 C8.66734148,7.00202443 8.42516262,5.97613831 8.2763932,4.93475242 L8.12265409,3.85857864 C8.0522757,3.36592991 7.63035497,3 7.1327046,3 L4,3 C3.44771525,3 3,3.44771525 3,4 Z" id="★-Icon"></path>
            </g>
        </g>
    </g>
</svg>
