<?xml version="1.0" encoding="UTF-8"?>
<svg width="24px" height="24px" viewBox="0 0 24 24" version="1.1" xmlns="http://www.w3.org/2000/svg" xmlns:xlink="http://www.w3.org/1999/xlink">
    <title>95E75772-BF5C-46FE-B1C2-422EA4890B0C</title>
    <g id="🎛-Styleguide" stroke="none" stroke-width="1" fill="none" fill-rule="evenodd">
        <g id="Icons" transform="translate(-32.000000, -704.000000)" fill="currentColor">
            <g id="Icon" transform="translate(32.000000, 704.000000)">
                <path d="M21,16 C21.5522847,16 22,16.4477153 22,17 L22,17 L22,21 C22,21.5522847 21.5522847,22 21,22 L21,22 L3,22 C2.44771525,22 2,21.5522847 2,21 L2,21 L2,17 C2,16.4477153 2.44771525,16 3,16 L3,16 Z M20,18 L4,18 L4,20 L20,20 L20,18 Z M21,9 C21.5522847,9 22,9.44771525 22,10 L22,10 L22,14 C22,14.5522847 21.5522847,15 21,15 L21,15 L3,15 C2.44771525,15 2,14.5522847 2,14 L2,14 L2,10 C2,9.44771525 2.44771525,9 3,9 L3,9 Z M20,11 L4,11 L4,13 L20,13 L20,11 Z M21,2 C21.5522847,2 22,2.44771525 22,3 L22,3 L22,7 C22,7.55228475 21.5522847,8 21,8 L21,8 L3,8 C2.44771525,8 2,7.55228475 2,7 L2,7 L2,3 C2,2.44771525 2.44771525,2 3,2 L3,2 Z M20,4 L4,4 L4,6 L20,6 L20,4 Z" id="★-Icon"></path>
            </g>
        </g>
    </g>
</svg>
