<?xml version="1.0" encoding="UTF-8"?>
<svg width="24px" height="24px" viewBox="0 0 24 24" version="1.1" xmlns="http://www.w3.org/2000/svg" xmlns:xlink="http://www.w3.org/1999/xlink">
    <title>477E68E8-D1F8-4635-9AE8-734CC5AFC274</title>
    <g id="🎛-Styleguide" stroke="none" stroke-width="1" fill="none" fill-rule="evenodd">
        <g id="Icons" transform="translate(-128.000000, -800.000000)" fill="currentColor">
            <g id="Icon" transform="translate(128.000000, 800.000000)">
                <path d="M11,3 C15.418278,3 19,6.581722 19,11 C19,12.8482015 18.3732643,14.550021 17.3207287,15.9045228 L20.7071068,19.2928932 C21.0976311,19.6834175 21.0976311,20.3165825 20.7071068,20.7071068 C20.3466228,21.0675907 19.7793918,21.0953203 19.3871006,20.7902954 L19.2928932,20.7071068 L15.9045228,17.3207287 C14.550021,18.3732643 12.8482015,19 11,19 C6.581722,19 3,15.418278 3,11 C3,6.581722 6.581722,3 11,3 Z M11,5 C7.6862915,5 5,7.6862915 5,11 C5,14.3137085 7.6862915,17 11,17 C14.3137085,17 17,14.3137085 17,11 C17,7.6862915 14.3137085,5 11,5 Z" id="★-Icon"></path>
            </g>
        </g>
    </g>
</svg>
