<?xml version="1.0" encoding="UTF-8"?>
<svg width="24px" height="24px" viewBox="0 0 24 24" version="1.1" xmlns="http://www.w3.org/2000/svg" xmlns:xlink="http://www.w3.org/1999/xlink">
    <title>5F622B33-1B1C-4EFA-8CB1-5DDE779613A2</title>
    <g id="🎛-Styleguide" stroke="none" stroke-width="1" fill="none" fill-rule="evenodd">
        <g id="Icons" transform="translate(-80.000000, -752.000000)" fill="currentColor">
            <g id="Icon" transform="translate(80.000000, 752.000000)">
                <path d="M18,2 C20.209139,2 22,3.790861 22,6 L22,18 C22,20.209139 20.209139,22 18,22 L6,22 C3.790861,22 2,20.209139 2,18 L2,6 C2,3.790861 3.790861,2 6,2 L18,2 Z M18,4 L6,4 C4.8954305,4 4,4.8954305 4,6 L4,6 L4,18 C4,19.1045695 4.8954305,20 6,20 L6,20 L18,20 C19.1045695,20 20,19.1045695 20,18 L20,18 L20,6 C20,4.8954305 19.1045695,4 18,4 L18,4 Z M14,6 L14,10 L18,10 L18,14 L14,14 L14,18 L10,18 L10,14 L6,14 L6,10 L10,10 L10,6 L14,6 Z" id="Combined-Shape"></path>
            </g>
        </g>
    </g>
</svg>
