<?xml version="1.0" encoding="UTF-8"?>
<svg width="24px" height="24px" viewBox="0 0 24 24" version="1.1" xmlns="http://www.w3.org/2000/svg" xmlns:xlink="http://www.w3.org/1999/xlink">
    <title>AC3F2A39-4D48-453B-95AE-723132411520</title>
    <g id="🎛-Styleguide" stroke="none" stroke-width="1" fill="none" fill-rule="evenodd">
        <g id="Icons" transform="translate(-128.000000, -704.000000)" fill="currentColor">
            <g id="Icon" transform="translate(128.000000, 704.000000)">
                <path d="M19,2 C19.5522847,2 20,2.44771525 20,3 L20,4 L22,4 L22,19 C22,20.1045695 21.1045695,21 20,21 L4,21 C2.8954305,21 2,20.1045695 2,19 L2,4 L4,4 L4,3 C4,2.44771525 4.44771525,2 5,2 C5.55228475,2 6,2.44771525 6,3 L6,4 L18,4 L18,3 C18,2.44771525 18.4477153,2 19,2 Z M20,6 L4,6 L4,19 L20,19 L20,6 Z M15.5,12 C16.8807119,12 18,13.1192881 18,14.5 C18,15.8807119 16.8807119,17 15.5,17 C14.1192881,17 13,15.8807119 13,14.5 C13,13.1192881 14.1192881,12 15.5,12 Z" id="★-Icon"></path>
            </g>
        </g>
    </g>
</svg>
