<?xml version="1.0" encoding="UTF-8"?>
<svg width="24px" height="24px" viewBox="0 0 24 24" version="1.1" xmlns="http://www.w3.org/2000/svg" xmlns:xlink="http://www.w3.org/1999/xlink">
    <title>3A93C5E2-24AC-4505-B0EB-A4FD40777D96</title>
    <g id="🎛-Styleguide" stroke="none" stroke-width="1" fill="none" fill-rule="evenodd">
        <g id="Icons" transform="translate(-32.000000, -608.000000)" fill="currentColor">
            <g id="Icon" transform="translate(32.000000, 608.000000)">
                <path d="M8.22527887,14.0384761 C10.4089267,13.4145767 12.7104082,13.3424157 14.9239237,13.8245134 L15.3538062,13.9255314 L15.7747211,14.0384761 L16.2359233,14.1702481 C18.2901549,14.7571714 19.8694194,16.3890549 20.4019836,18.4624674 L20.4587557,18.7036324 L20.5059601,18.9529979 L20.9863939,21.835601 C21.0816333,22.407037 20.6744619,22.9304281 20.114027,22.9936198 L20,23 L4,23 C3.42068178,23 2.97135057,22.5123237 3.00115357,21.9491255 L3.01360608,21.835601 L3.49403993,18.9529979 C3.84526737,16.8456332 5.28840113,15.0922123 7.288423,14.3289453 L7.52163571,14.2453064 L7.76407671,14.1702481 L8.22527887,14.0384761 Z M14.4510142,15.7685033 C12.7082925,15.3964606 10.9030673,15.425966 9.1726562,15.8553401 L8.77472113,15.9615239 L8.33553607,16.0867309 L8.13699846,16.1481463 C6.80815253,16.5948299 5.81372655,17.704283 5.50913643,19.0649295 L5.46682778,19.2817958 L5.18,21 L18.819,21 L18.5372094,19.3044134 L18.4986036,19.100211 C18.204816,17.7294278 17.2147378,16.6160929 15.8971836,16.1598204 L15.686481,16.093296 L15.2411366,15.9659139 L14.844,15.859 L14.4510142,15.7685033 Z M12,1 C15.3137085,1 18,3.6862915 18,7 C18,10.3137085 15.3137085,13 12,13 C8.6862915,13 6,10.3137085 6,7 C6,3.6862915 8.6862915,1 12,1 Z M12,3 C9.790861,3 8,4.790861 8,7 C8,9.209139 9.790861,11 12,11 C14.209139,11 16,9.209139 16,7 C16,4.790861 14.209139,3 12,3 Z" id="★-Icon"></path>
            </g>
        </g>
    </g>
</svg>
