<?xml version="1.0" encoding="utf-8"?>
<!-- Generator: Adobe Illustrator 25.4.1, SVG Export Plug-In . SVG Version: 6.00 Build 0)  -->
<svg version="1.1" id="Layer_1" xmlns="http://www.w3.org/2000/svg" xmlns:xlink="http://www.w3.org/1999/xlink" x="0px" y="0px"
	 viewBox="0 0 24 24" style="enable-background:new 0 0 24 24;" xml:space="preserve">
<style type="text/css">
	.st0{fill-rule:evenodd;clip-rule:evenodd;fill:currentColor;}
</style>
<path id="Group" class="st0" d="M12,13c3.9,0,7,3.1,7,7l0,0v4H5v-4C5,16.1,8.1,13,12,13z M12,15c-2.8,0-5,2.2-5,5l0,0v2h10v-2
	c0-2.7-2.1-4.9-4.8-5l0,0L12,15z M6.2,13l-1.4,2.4c-1.6,0.8-2.7,2.4-2.8,4.3L2,20l2,0v2l-4,0v-2l0-0.2C0.1,16.3,2.8,13.4,6.2,13z
	 M17.8,13c3.4,0.4,6.1,3.2,6.2,6.7l0,0.2v2l-4,0v-2l2,0c0-2-1.2-3.7-2.8-4.5L17.8,13z M12,0c3.3,0,6,2.7,6,6s-2.7,6-6,6S6,9.3,6,6
	S8.7,0,12,0z M19,2.1c2.3,0.5,4,2.5,4,4.9c0,2.8-2.2,5-5,5c-0.1,0-0.2,0-0.3,0l0.9-2.1C20,9.7,21,8.5,21,7c0-1.3-0.8-2.4-2-2.8
	L19,2.1z M5,2.1l0,2.1C3.8,4.6,3,5.7,3,7c0,1.5,1,2.7,2.4,2.9L6.3,12c-0.1,0-0.2,0-0.3,0c-2.8,0-5-2.2-5-5C1,4.6,2.7,2.6,5,2.1z
	 M12,2C9.8,2,8,3.8,8,6s1.8,4,4,4s4-1.8,4-4S14.2,2,12,2z"/>
</svg>
