<?xml version="1.0" encoding="UTF-8"?>
<svg width="24px" height="24px" viewBox="0 0 24 24" version="1.1" xmlns="http://www.w3.org/2000/svg" xmlns:xlink="http://www.w3.org/1999/xlink">
    <title>C6FC2927-DF44-4440-8A40-3935442E78D6</title>
    <g id="🎛-Styleguide" stroke="none" stroke-width="1" fill="none" fill-rule="evenodd">
        <g id="Icons" transform="translate(-176.000000, -992.000000)" fill="#97A1A6">
            <g id="Icon" transform="translate(176.000000, 992.000000)">
                <path d="M18,2 C18.5522847,2 19,2.44771525 19,3 L19,8 L17,8 L17,4 L6,4 L6,20 L19,20 L19,21 C19,21.5522847 18.5522847,22 18,22 L5,22 C4.44771525,22 4,21.5522847 4,21 L4,3 C4,2.44771525 4.44771525,2 5,2 L18,2 Z M19,10 L19,13 L22,13 L22,15 L19,15 L19,18 L17,18 L17,15 L14,15 L14,13 L17,13 L17,10 L19,10 Z M12,16 L12,17 L8,17 L8,16 L12,16 Z M12,14 L12,15 L8,15 L8,14 L12,14 Z M12,12 L12,13 L8,13 L8,12 L12,12 Z M15,8 L15,10 L8,10 L8,8 L15,8 Z" id="★-Icon"></path>
            </g>
        </g>
    </g>
</svg>