<?xml version="1.0" encoding="UTF-8"?>
<svg width="24px" height="24px" viewBox="0 0 24 24" version="1.1" xmlns="http://www.w3.org/2000/svg" xmlns:xlink="http://www.w3.org/1999/xlink">
    <title>E0E47802-0670-481E-9676-64321423C6B8</title>
    <g id="🎛-Styleguide" stroke="none" stroke-width="1" fill="none" fill-rule="evenodd">
        <g id="Icons" transform="translate(-272.000000, -464.000000)" fill="#97A1A6">
            <g id="Icon" transform="translate(272.000000, 464.000000)">
                <path d="M10.7071068,5.29289322 C11.0675907,5.65337718 11.0953203,6.22060824 10.7902954,6.61289944 L10.7071068,6.70710678 L6.415,10.999 L20,11 C20.5522847,11 21,11.4477153 21,12 C21,12.5128358 20.6139598,12.9355072 20.1166211,12.9932723 L20,13 L6.413,12.999 L10.7071068,17.2928932 C11.0675907,17.6533772 11.0953203,18.2206082 10.7902954,18.6128994 L10.7071068,18.7071068 C10.3466228,19.0675907 9.77939176,19.0953203 9.38710056,18.7902954 L9.29289322,18.7071068 L3.29289322,12.7071068 L3.21968877,12.625449 C3.2173721,12.6225624 3.21507113,12.6196628 3.21278596,12.6167501 L3.29289322,12.7071068 C3.25749917,12.6717127 3.22531295,12.6343256 3.19633458,12.5953066 C3.17849009,12.5711307 3.1617187,12.546275 3.14606743,12.5206602 C3.13860692,12.5086131 3.13149883,12.4963944 3.12467117,12.4840621 C3.11379392,12.4642939 3.10337664,12.4438914 3.09365378,12.4230991 C3.08567905,12.4060985 3.07819642,12.3887956 3.07122549,12.371336 C3.06331574,12.3515792 3.05612249,12.3317977 3.04954668,12.3117364 C3.04472872,12.2968513 3.04009773,12.2814633 3.03584514,12.265993 C3.02983363,12.2444365 3.0246398,12.2227461 3.02016515,12.2007941 C3.01670217,12.1833753 3.01362808,12.165949 3.0110178,12.1484669 C3.00811223,12.1294958 3.00576612,12.109847 3.00399798,12.090032 C3.00189498,12.0659949 3.00063489,12.042681 3.00018615,12.0193545 C3.00006675,12.0134712 3,12.0067434 3,12 L3.00018615,11.9806455 C3.00063489,11.957319 3.00189498,11.9340051 3.00396641,11.9107499 L3,12 C3,11.9493797 3.00376119,11.8996379 3.01101934,11.8510388 C3.01362808,11.834051 3.01670217,11.8166247 3.02024007,11.7992742 C3.0246398,11.7772539 3.02983363,11.7555635 3.03572097,11.7341604 C3.04009773,11.7185367 3.04472872,11.7031487 3.04973809,11.6878575 C3.05612249,11.6682023 3.06331574,11.6484208 3.07110396,11.6289415 C3.07819642,11.6112044 3.08567905,11.5939015 3.09367336,11.5767785 C3.10337664,11.5561086 3.11379392,11.5357061 3.12487577,11.515723 C3.13149883,11.5036056 3.13860692,11.4913869 3.14599545,11.4792912 C3.1617187,11.453725 3.17849009,11.4288693 3.19631351,11.4048407 C3.20071786,11.3987914 3.20517454,11.3929267 3.20970461,11.3871006 C3.23766884,11.3515341 3.26442691,11.3213595 3.29289322,11.2928932 L9.29289322,5.29289322 C9.68341751,4.90236893 10.3165825,4.90236893 10.7071068,5.29289322 Z" id="★-Icon"></path>
            </g>
        </g>
    </g>
</svg>