<?xml version="1.0" encoding="UTF-8"?>
<svg width="24px" height="24px" viewBox="0 0 24 24" version="1.1" xmlns="http://www.w3.org/2000/svg" xmlns:xlink="http://www.w3.org/1999/xlink">
    <title>A5E049FA-6F77-4470-A560-F2572C1FBFC6</title>
    <g id="🎛-Styleguide" stroke="none" stroke-width="1" fill="none" fill-rule="evenodd">
        <g id="Icons" transform="translate(-224.000000, -752.000000)" fill="#97A1A6">
            <g id="Icon" transform="translate(224.000000, 752.000000)">
                <path d="M20,1 C21.6568542,1 23,2.34314575 23,4 L23,4 L23,20 C23,21.6568542 21.6568542,23 20,23 L20,23 L4,23 C2.34314575,23 1,21.6568542 1,20 L1,20 L1,4 C1,2.34314575 2.34314575,1 4,1 L4,1 Z M20,3 L4,3 C3.44771525,3 3,3.44771525 3,4 L3,4 L3,20 C3,20.5522847 3.44771525,21 4,21 L4,21 L20,21 C20.5522847,21 21,20.5522847 21,20 L21,20 L21,4 C21,3.44771525 20.5522847,3 20,3 L20,3 Z M6,12 C6.55228475,12 7,12.4477153 7,13 L7,18 C7,18.5522847 6.55228475,19 6,19 C5.44771525,19 5,18.5522847 5,18 L5,13 C5,12.4477153 5.44771525,12 6,12 Z M18,8 C18.5522847,8 19,8.44771525 19,9 L19,18 C19,18.5522847 18.5522847,19 18,19 C17.4477153,19 17,18.5522847 17,18 L17,9 C17,8.44771525 17.4477153,8 18,8 Z M14,5 C14.5522847,5 15,5.44771525 15,6 L15,18 C15,18.5522847 14.5522847,19 14,19 C13.4477153,19 13,18.5522847 13,18 L13,6 C13,5.44771525 13.4477153,5 14,5 Z M10,10 C10.5522847,10 11,10.4477153 11,11 L11,18 C11,18.5522847 10.5522847,19 10,19 C9.44771525,19 9,18.5522847 9,18 L9,11 C9,10.4477153 9.44771525,10 10,10 Z" id="★-Icon"></path>
            </g>
        </g>
    </g>
</svg>