<?xml version="1.0" encoding="UTF-8"?>
<svg width="24px" height="24px" viewBox="0 0 24 24" version="1.1" xmlns="http://www.w3.org/2000/svg" xmlns:xlink="http://www.w3.org/1999/xlink">
    <title>2454D41C-B708-4CB1-8FE8-8CEC602ECAC8</title>
    <g id="🎛-Styleguide" stroke="none" stroke-width="1" fill="none" fill-rule="evenodd">
        <g id="Icons" transform="translate(-272.000000, -752.000000)" fill="#97A1A6">
            <g id="Icon" transform="translate(272.000000, 752.000000)">
                <path d="M9,0 L19,2 L19,22 L9,24 L9,3.5 L5.5,3.5 L5.5,22 L4,22 L4,3 C4,2.44771525 4.44771525,2 5,2 L9,2 L9,0 Z M11.25,11 C10.8357864,11 10.5,11.3357864 10.5,11.75 L10.5,11.75 L10.5,12.25 C10.5,12.6642136 10.8357864,13 11.25,13 C11.6642136,13 12,12.6642136 12,12.25 L12,12.25 L12,11.75 C12,11.3357864 11.6642136,11 11.25,11 Z" id="★-Icon"></path>
            </g>
        </g>
    </g>
</svg>