<?xml version="1.0" encoding="UTF-8"?>
<svg width="24px" height="24px" viewBox="0 0 24 24" version="1.1" xmlns="http://www.w3.org/2000/svg" xmlns:xlink="http://www.w3.org/1999/xlink">
    <title>1F2E3A5B-7BA3-48CD-A417-3D017DE2B30A</title>
    <g id="🎛-Styleguide" stroke="none" stroke-width="1" fill="none" fill-rule="evenodd">
        <g id="Icons" transform="translate(-176.000000, -704.000000)" fill="#97A1A6">
            <g id="Icon" transform="translate(176.000000, 704.000000)">
                <path d="M13,2 C14.1045695,2 15,2.8954305 15,4 L15,5 L18,5 C19.1045695,5 20,5.8954305 20,7 L20,20 C20,21.1045695 19.1045695,22 18,22 L6,22 C4.8954305,22 4,21.1045695 4,20 L4,7 C4,5.8954305 4.8954305,5 6,5 L9,5 L9,4 C9,2.8954305 9.8954305,2 11,2 L13,2 Z M18,7 L6,7 L6,20 L18,20 L18,7 Z M13,16 L13,18 L8,18 L8,16 L13,16 Z M16,13 L16,15 L8,15 L8,13 L16,13 Z M16,10 L16,12 L8,12 L8,10 L16,10 Z M13,4 L11,4 L11,5 L13,5 L13,4 Z" id="★-Icon"></path>
            </g>
        </g>
    </g>
</svg>