<?xml version="1.0" encoding="UTF-8"?>
<svg width="24px" height="24px" viewBox="0 0 24 24" version="1.1" xmlns="http://www.w3.org/2000/svg" xmlns:xlink="http://www.w3.org/1999/xlink">
    <title>12C5EAD4-0591-40D0-B51F-23A1F2962BBC</title>
    <g id="🎛-Styleguide" stroke="none" stroke-width="1" fill="none" fill-rule="evenodd">
        <g id="Icons" transform="translate(-272.000000, -512.000000)" fill="#97A1A6">
            <g id="Icon" transform="translate(272.000000, 512.000000)">
                <path d="M12,2 C17.5228475,2 22,6.4771525 22,12 C22,17.5228475 17.5228475,22 12,22 C6.4771525,22 2,17.5228475 2,12 C2,6.4771525 6.4771525,2 12,2 Z M12,4 C7.581722,4 4,7.581722 4,12 C4,16.418278 7.581722,20 12,20 C16.418278,20 20,16.418278 20,12 C20,7.581722 16.418278,4 12,4 Z M12,7 C12.5164112,7 12.9360179,7.38248012 12.993327,7.87523233 L13,7.99077797 L12.9996485,11.585 L16.2405693,14.8263558 C16.609384,15.1951705 16.6326032,15.7563436 16.3277163,16.1467723 L16.2446691,16.2406122 L16.2426407,16.2426407 L16.1491779,16.3250525 C15.7917847,16.6022173 15.2818683,16.6040513 14.9208863,16.3239544 L14.8263558,16.2405693 L11.3262179,12.7427253 C11.1957385,12.6250089 11.0971389,12.4734372 11.0440486,12.3019844 C11.0418686,12.292628 11.0391358,12.2836526 11.036534,12.2746509 C11.0297876,12.2522691 11.0242611,12.2292503 11.0195558,12.2059351 C11.0000055,12.1152411 10.9936337,12.0225888 11.0000749,11.9307405 L11,7.99077797 C11,7.45097518 11.4477153,7 12,7 Z" id="★-Icon"></path>
            </g>
        </g>
    </g>
</svg>