<?xml version="1.0" encoding="UTF-8"?>
<svg width="24px" height="24px" viewBox="0 0 24 24" version="1.1" xmlns="http://www.w3.org/2000/svg" xmlns:xlink="http://www.w3.org/1999/xlink">
    <title>1CCC3779-9683-4E46-A2E3-1421D21E55BA</title>
    <g id="🎛-Styleguide" stroke="none" stroke-width="1" fill="none" fill-rule="evenodd">
        <g id="Icons" transform="translate(-224.000000, -704.000000)" fill="#97A1A6">
            <g id="Icon" transform="translate(224.000000, 704.000000)">
                <path d="M9,13 C10.0543618,13 10.9181651,13.8158778 10.9945143,14.8507377 L11,15 L11,21 L9,21 L8.999,18.9999952 L4.999,18.9999952 L5,21 L3,21 L3,15 C3,13.9456382 3.81587779,13.0818349 4.85073766,13.0054857 L5,13 L9,13 Z M21,13 L21,15 L15,15 L15,15.7041332 L19.2828427,16.3159678 C20.2162824,16.4493164 20.9222601,17.2136883 20.9939878,18.1400532 L21,18.2958668 L21,19 C21,20.0543618 20.1841222,20.9181651 19.1492623,20.9945143 L19,21 L13,21 L13,19 L19,19 L19,18.2958668 L14.7171573,17.6840322 C13.7837176,17.5506836 13.0777399,16.7863117 13.0060122,15.8599468 L13,15.7041332 L13,15 C13,13.9456382 13.8158778,13.0818349 14.8507377,13.0054857 L15,13 L21,13 Z M9,15 L5,15 L5,16.9999952 L9,16.9999952 L9,15 Z M14.6225268,3.21677482 L14.7071068,3.29289322 L19,7.585 L19,3 L21,3 L21,10 C21,10.8521699 20.0144864,11.2974338 19.3774732,10.7832252 L19.2928932,10.7071068 L15,6.415 L15,11 L13,11 L13,4 C13,3.14783014 13.9855136,2.70256618 14.6225268,3.21677482 Z M11,3 L11,5 L6,5 C5.48716416,5 5.06449284,5.38604019 5.00672773,5.88337887 L5,6 L5,8 C5,8.51283584 5.38604019,8.93550716 5.88337887,8.99327227 L6,9 L11,9 L11,11 L6,11 C4.40231912,11 3.09633912,9.75108004 3.00509269,8.17627279 L3,8 L3,6 C3,4.40231912 4.24891996,3.09633912 5.82372721,3.00509269 L6,3 L11,3 Z" id="★-Icon"></path>
            </g>
        </g>
    </g>
</svg>