<?xml version="1.0" encoding="UTF-8"?>
<svg width="24px" height="24px" viewBox="0 0 24 24" version="1.1" xmlns="http://www.w3.org/2000/svg" xmlns:xlink="http://www.w3.org/1999/xlink">
    <title>3377C829-07DF-4628-9884-4BE6617AED3B</title>
    <g id="🎛-Styleguide" stroke="none" stroke-width="1" fill="none" fill-rule="evenodd">
        <g id="Icons" transform="translate(-272.000000, -608.000000)" fill="#97A1A6">
            <g id="Icon" transform="translate(272.000000, 608.000000)">
                <path d="M21,4 C22.1045695,4 23,4.8954305 23,6 L23,18 C23,19.1045695 22.1045695,20 21,20 L3,20 C1.8954305,20 1,19.1045695 1,18 L1,6 C1,4.8954305 1.8954305,4 3,4 L21,4 Z M21,6 L3,6 L3,18 L21,18 L21,6 Z M8,13 C9.15411055,13 10.1390634,13.8343802 10.328798,14.9727878 L10.5,16 L5.5,16 L5.67120203,14.9727878 C5.86093663,13.8343802 6.84588945,13 8,13 Z M8,8 C9.1045695,8 10,8.8954305 10,10 C10,11.1045695 9.1045695,12 8,12 C6.8954305,12 6,11.1045695 6,10 C6,8.8954305 6.8954305,8 8,8 Z" id="Rectangle"></path>
            </g>
        </g>
    </g>
</svg>