<?xml version="1.0" encoding="UTF-8"?>
<svg width="24px" height="24px" viewBox="0 0 24 24" version="1.1" xmlns="http://www.w3.org/2000/svg" xmlns:xlink="http://www.w3.org/1999/xlink">
    <title>E53C089B-470E-4AF8-9499-58C0E2C3C297</title>
    <g id="🎛-Styleguide" stroke="none" stroke-width="1" fill="none" fill-rule="evenodd">
        <g id="Icons" transform="translate(-272.000000, -656.000000)" fill="#97A1A6">
            <g id="Icon" transform="translate(272.000000, 656.000000)">
                <path d="M7,16 C7.55228475,16 8,16.4477153 8,17 L8,17 L8,21 C8,21.5522847 7.55228475,22 7,22 L7,22 L3,22 C2.44771525,22 2,21.5522847 2,21 L2,21 L2,17 C2,16.4477153 2.44771525,16 3,16 L3,16 Z M14,16 C14.5522847,16 15,16.4477153 15,17 L15,17 L15,21 C15,21.5522847 14.5522847,22 14,22 L14,22 L10,22 C9.44771525,22 9,21.5522847 9,21 L9,21 L9,17 C9,16.4477153 9.44771525,16 10,16 L10,16 Z M21,9 C21.5522847,9 22,9.44771525 22,10 L22,10 L22,21 C22,21.5522847 21.5522847,22 21,22 L21,22 L17,22 C16.4477153,22 16,21.5522847 16,21 L16,21 L16,10 C16,9.44771525 16.4477153,9 17,9 L17,9 Z M6,18 L4,18 L4,20 L6,20 L6,18 Z M13,18 L11,18 L11,20 L13,20 L13,18 Z M20,11 L18,11 L18,20 L20,20 L20,11 Z M7,2 C7.55228475,2 8,2.44771525 8,3 L8,3 L8,14 C8,14.5522847 7.55228475,15 7,15 L7,15 L3,15 C2.44771525,15 2,14.5522847 2,14 L2,14 L2,3 C2,2.44771525 2.44771525,2 3,2 L3,2 Z M14,9 C14.5522847,9 15,9.44771525 15,10 L15,10 L15,14 C15,14.5522847 14.5522847,15 14,15 L14,15 L10,15 C9.44771525,15 9,14.5522847 9,14 L9,14 L9,10 C9,9.44771525 9.44771525,9 10,9 L10,9 Z M6,4 L4,4 L4,13 L6,13 L6,4 Z M13,11 L11,11 L11,13 L13,13 L13,11 Z M14,2 C14.5522847,2 15,2.44771525 15,3 L15,3 L15,7 C15,7.55228475 14.5522847,8 14,8 L14,8 L10,8 C9.44771525,8 9,7.55228475 9,7 L9,7 L9,3 C9,2.44771525 9.44771525,2 10,2 L10,2 Z M21,2 C21.5522847,2 22,2.44771525 22,3 L22,3 L22,7 C22,7.55228475 21.5522847,8 21,8 L21,8 L17,8 C16.4477153,8 16,7.55228475 16,7 L16,7 L16,3 C16,2.44771525 16.4477153,2 17,2 L17,2 Z M13,4 L11,4 L11,6 L13,6 L13,4 Z M20,4 L18,4 L18,6 L20,6 L20,4 Z" id="★-Icon"></path>
            </g>
        </g>
    </g>
</svg>