<?xml version="1.0" encoding="UTF-8"?>
<svg width="24px" height="24px" viewBox="0 0 24 24" version="1.1" xmlns="http://www.w3.org/2000/svg" xmlns:xlink="http://www.w3.org/1999/xlink">
    <title>0D67F511-5B9D-4B09-9276-5EC25199E948</title>
    <g id="🎛-Styleguide" stroke="none" stroke-width="1" fill="none" fill-rule="evenodd">
        <g id="Icons" transform="translate(-32.000000, -656.000000)" fill="#97A1A6">
            <g id="Icon" transform="translate(32.000000, 656.000000)">
                <path d="M19,2 C19.5522847,2 20,2.44771525 20,3 L20,4 L22,4 L22,19 C22,20.1045695 21.1045695,21 20,21 L4,21 C2.8954305,21 2,20.1045695 2,19 L2,4 L4,4 L4,3 C4,2.44771525 4.44771525,2 5,2 C5.55228475,2 6,2.44771525 6,3 L6,4 L18,4 L18,3 C18,2.44771525 18.4477153,2 19,2 Z M20,6 L4,6 L4,19 L20,19 L20,6 Z M9,14 L9,16 L7,16 L7,14 L9,14 Z M13,14 L13,16 L11,16 L11,14 L13,14 Z M9,10 L9,12 L7,12 L7,10 L9,10 Z M13,10 L13,12 L11,12 L11,10 L13,10 Z M17,10 L17,12 L15,12 L15,10 L17,10 Z" id="★-Icon"></path>
            </g>
        </g>
    </g>
</svg>