<?xml version="1.0" encoding="UTF-8"?>
<svg width="24px" height="24px" viewBox="0 0 24 24" version="1.1" xmlns="http://www.w3.org/2000/svg" xmlns:xlink="http://www.w3.org/1999/xlink">
    <title>6D9AA6E6-ADE1-4A58-8501-6B538E1E4661</title>
    <g id="🎛-Styleguide" stroke="none" stroke-width="1" fill="none" fill-rule="evenodd">
        <g id="Icons" transform="translate(-80.000000, -560.000000)" fill="#97A1A6">
            <g id="Icon" transform="translate(80.000000, 560.000000)">
                <circle id="Oval" cx="12" cy="4" r="2"></circle>
                <circle id="Oval" opacity="0.5" cx="12" cy="20" r="2"></circle>
                <circle id="Oval" opacity="0.200000003" transform="translate(20.000000, 12.000000) rotate(-270.000000) translate(-20.000000, -12.000000) " cx="20" cy="12" r="2"></circle>
                <circle id="Oval" opacity="0.800000012" transform="translate(4.000000, 12.000000) rotate(-270.000000) translate(-4.000000, -12.000000) " cx="4" cy="12" r="2"></circle>
                <circle id="Oval" opacity="0.100000001" transform="translate(17.656854, 6.343146) rotate(-315.000000) translate(-17.656854, -6.343146) " cx="17.6568542" cy="6.34314575" r="2"></circle>
                <circle id="Oval" opacity="0.699999988" transform="translate(6.343146, 17.656854) rotate(-315.000000) translate(-6.343146, -17.656854) " cx="6.34314575" cy="17.6568542" r="2"></circle>
                <circle id="Oval" opacity="0.900000036" transform="translate(6.343146, 6.343146) scale(-1, 1) rotate(-315.000000) translate(-6.343146, -6.343146) " cx="6.34314575" cy="6.34314575" r="2"></circle>
                <circle id="Oval" opacity="0.300000012" transform="translate(17.656854, 17.656854) scale(-1, 1) rotate(-315.000000) translate(-17.656854, -17.656854) " cx="17.6568542" cy="17.6568542" r="2"></circle>
            </g>
        </g>
    </g>
</svg>