<?xml version="1.0" encoding="UTF-8"?>
<svg width="24px" height="24px" viewBox="0 0 24 24" version="1.1" xmlns="http://www.w3.org/2000/svg" xmlns:xlink="http://www.w3.org/1999/xlink">
    <title>849158B6-EC27-4888-9CC4-D6046A021E14</title>
    <g id="🎛-Styleguide" stroke="none" stroke-width="1" fill="none" fill-rule="evenodd">
        <g id="Icons" transform="translate(-32.000000, -848.000000)" fill="#97A1A6">
            <g id="Icon" transform="translate(32.000000, 848.000000)">
                <path d="M14.5,20 L14.0527864,20.8944272 C13.7140024,21.5719952 13.0214761,22 12.263932,22 L11.736068,22 C10.9785239,22 10.2859976,21.5719952 9.9472136,20.8944272 L9.5,20 L14.5,20 Z M13,2 C13.5128358,2 13.9355072,2.38604019 13.9932723,2.88337887 L14,3 L14.0010638,4.31888806 C14.6833458,4.53975709 15.3510195,4.87452284 16.0015223,5.3205705 C16.8242308,5.88469901 17.4041215,6.73409784 17.6322309,7.69958961 L17.6785773,7.92437923 L18.8752216,14.7053633 C18.9037463,14.8670034 18.9714943,15.0184948 19.0717327,15.146906 L19.1528983,15.2386848 L19.2071068,15.2928932 C19.668635,15.7544214 19.9463046,16.365439 19.9929758,17.0121398 L20,17.2071068 L20,18 C20,18.5128358 19.6139598,18.9355072 19.1166211,18.9932723 L19,19 L5,19 C4.48716416,19 4.06449284,18.6139598 4.00672773,18.1166211 L4,18 L4,17.2071068 C4,16.5544074 4.23571258,15.9260106 4.65999766,15.4357226 L4.79289322,15.2928932 L4.84710166,15.2386848 C4.96316453,15.1226219 5.04842017,14.980246 5.09613574,14.8244885 L5.12477844,14.7053633 L6.32142615,7.92435963 C6.50812011,6.86642719 7.11251101,5.92805881 7.99850529,5.32055155 C8.64932107,4.87429278 9.31732424,4.5394229 9.99994837,4.31856047 L10,3 C10,2.48716416 10.3860402,2.06449284 10.8833789,2.00672773 L11,2 L13,2 Z M12,6 C11.032605,6 10.0822063,6.31678929 9.1295291,6.97003182 C8.73575503,7.24003424 8.45323239,7.64074523 8.32975057,8.09796778 L8.29099327,8.2719303 L7.09434556,15.052934 C6.99926315,15.5917343 6.75890931,16.0929468 6.40099122,16.5033554 L6.26131523,16.6528983 L6.20710678,16.7071068 C6.15406348,16.7601501 6.11031774,16.8207529 6.07691843,16.8863831 L6.03471041,16.9882822 L6.031,17 L17.968,17 L17.9652896,16.9882822 C17.9500958,16.9415993 17.9300706,16.896588 17.9055246,16.8539987 L17.8653539,16.7920249 L17.7928932,16.7071068 L17.7386848,16.6528983 C17.3518085,16.2660221 17.0790332,15.7816901 16.9480658,15.2531182 L16.9056544,15.052934 L15.7090082,8.27193857 C15.6156692,7.7429823 15.3134809,7.27380229 14.8704853,6.97004171 C13.9178081,6.31679407 12.9674023,6 12,6 Z" id="★-Icon"></path>
            </g>
        </g>
    </g>
</svg>