<?xml version="1.0" encoding="UTF-8"?>
<svg width="24px" height="24px" viewBox="0 0 24 24" version="1.1" xmlns="http://www.w3.org/2000/svg" xmlns:xlink="http://www.w3.org/1999/xlink">
    <title>ED7E16F0-C83A-4766-A0E1-AF6D2B764D4E</title>
    <g id="🎛-Styleguide" stroke="none" stroke-width="1" fill="none" fill-rule="evenodd">
        <g id="Icons" transform="translate(-224.000000, -848.000000)" fill="#97A1A6">
            <g id="Icon" transform="translate(224.000000, 848.000000)">
                <path d="M18,2 C18.5522847,2 19,2.44771525 19,3 C19,3.55228475 18.5522847,4 18,4 L18,5.7768127 C18,7.30880725 17.4139824,8.78277372 16.3620789,9.8965539 L16.3620789,9.8965539 L14.3754909,12 L16.3620789,14.1034461 C17.4139824,15.2172263 18,16.6911928 18,18.2231873 L18,18.2231873 L18,20 C18.5522847,20 19,20.4477153 19,21 C19,21.5522847 18.5522847,22 18,22 L6,22 C5.44771525,22 5,21.5522847 5,21 C5,20.4477153 5.44771525,20 6,20 L6,18.2231873 C6,16.6911928 6.58601758,15.2172263 7.63792108,14.1034461 L7.63792108,14.1034461 L9.62450907,12 L7.63792108,9.8965539 C6.58601758,8.78277372 6,7.30880725 6,5.7768127 L6,5.7768127 L6,4 C5.44771525,4 5,3.55228475 5,3 C5,2.44771525 5.44771525,2 6,2 L18,2 Z M16,4 L8,4 L8,5.7768127 C8,6.71957858 8.33288572,7.62938176 8.93566598,8.34778517 L8.93566598,8.34778517 L9.09194739,8.52330684 L11.0785354,10.6267529 C11.8065003,11.3975393 11.8065003,12.6024607 11.0785354,13.3732471 L11.0785354,13.3732471 L9.09194739,15.4766932 C8.39067838,16.2192133 8,17.2018576 8,18.2231873 L8,18.2231873 L8,19.665 L8.07247959,19.5458674 C8.68320147,18.5279976 9.51233136,17.6584458 10.5,17 L11.4452998,16.3698001 C11.7811992,16.1458672 12.2188008,16.1458672 12.5547002,16.3698001 L13.5,17 C14.4876686,17.6584458 15.3167985,18.5279976 15.9275204,19.5458674 L16,19.667 L16,18.2231873 C16,17.3589852 15.7202835,16.522481 15.2093698,15.8357115 L15.064334,15.6522148 L14.9080526,15.4766932 L12.9214646,13.3732471 C12.1934997,12.6024607 12.1934997,11.3975393 12.9214646,10.6267529 L12.9214646,10.6267529 L14.9080526,8.52330684 C15.6093216,7.78078671 16,6.7981424 16,5.7768127 L16,5.7768127 L16,4 Z M13.1464466,8 C13.372823,8 13.5899277,8.08992769 13.75,8.25 C13.8880712,8.38807119 13.8880712,8.61192881 13.75,8.75 L12,10.5 L10.25,8.75 C10.1119288,8.61192881 10.1119288,8.38807119 10.25,8.25 C10.4100723,8.08992769 10.627177,8 10.8535534,8 L13.1464466,8 Z" id="★-Icon"></path>
            </g>
        </g>
    </g>
</svg>