<?xml version="1.0" encoding="UTF-8"?>
<svg width="24px" height="24px" viewBox="0 0 24 24" version="1.1" xmlns="http://www.w3.org/2000/svg" xmlns:xlink="http://www.w3.org/1999/xlink">
    <title>EE41997C-FCED-433A-A385-434C721A5814</title>
    <g id="🎛-Styleguide" stroke="none" stroke-width="1" fill="none" fill-rule="evenodd">
        <g id="Icons" transform="translate(-32.000000, -416.000000)" fill="#97A1A6">
            <g id="Icon" transform="translate(32.000000, 416.000000)">
                <path d="M12,4 C12.5128358,4 12.9355072,4.38604019 12.9932723,4.88337887 L13,5 L13,10.999 L19,11 C19.5522847,11 20,11.4477153 20,12 C20,12.5128358 19.6139598,12.9355072 19.1166211,12.9932723 L19,13 L13,13 L13,19 C13,19.5522847 12.5522847,20 12,20 C11.4871642,20 11.0644928,19.6139598 11.0067277,19.1166211 L11,19 L11,13 L5,13 C4.44771525,13 4,12.5522847 4,12 C4,11.4871642 4.38604019,11.0644928 4.88337887,11.0067277 L5,11 L11,11 L11,5 C11,4.44771525 11.4477153,4 12,4 Z" id="★-Icon"></path>
            </g>
        </g>
    </g>
</svg>