<?xml version="1.0" encoding="UTF-8"?>
<svg width="24px" height="24px" viewBox="0 0 24 24" version="1.1" xmlns="http://www.w3.org/2000/svg" xmlns:xlink="http://www.w3.org/1999/xlink">
    <title>2B6FD14E-9F6A-4072-B9EF-6872A414BCA5</title>
    <g id="🎛-Styleguide" stroke="none" stroke-width="1" fill="none" fill-rule="evenodd">
        <g id="Icons" transform="translate(-32.000000, -464.000000)" fill="#97A1A6">
            <g id="Icon" transform="translate(32.000000, 464.000000)">
                <path d="M21.8983588,8.56022533 L21.9222695,8.61233194 C21.9284173,8.62699541 21.9342004,8.64177758 21.9396188,8.65666436 C21.9786275,8.76365729 22,8.87933274 22,9 C22,9.04084533 21.9975512,9.08111871 21.9927923,9.12068132 C21.9856785,9.17943927 21.9733841,9.23776122 21.9558824,9.29480626 C21.9503339,9.31265932 21.9443736,9.33022431 21.9379464,9.34756256 C21.9323259,9.36312632 21.9261557,9.37863731 21.9195826,9.3940149 C21.9099574,9.41596284 21.8998934,9.43726474 21.889116,9.45813838 C21.8833346,9.46995261 21.8769749,9.48171552 21.8703623,9.49337209 C21.857158,9.51601047 21.8433394,9.53824608 21.8286961,9.5598778 C21.8203834,9.57269872 21.8115876,9.58506122 21.8024765,9.59726018 C21.7865331,9.61817121 21.770046,9.63856393 21.7527973,9.6582733 C21.7481612,9.66383448 21.742973,9.66961337 21.7377055,9.67534482 L21.7276079,9.6859972 C21.7086396,9.70610868 21.6888467,9.72543389 21.6682833,9.74391879 L21.6507914,9.7592566 L14.6507914,15.7592566 C14.2314655,16.1186788 13.6001655,16.0701172 13.2407434,15.6507914 C12.9089691,15.2637214 12.9248259,14.6960343 13.2590397,14.328293 L13.3492086,14.2407434 L18.296,9.99998187 L13,10 C8.66508574,10 5.13545713,13.4478378 5.00380682,17.7508207 L5,18 L5,21 C5,21.5522847 4.55228475,22 4,22 C3.48716416,22 3.06449284,21.6139598 3.00672773,21.1166211 L3,21 L3,18 C3,12.5707601 7.32667079,8.15206828 12.7200952,8.0038418 L13,8 L18.296,7.99998187 L13.3492086,3.7592566 C12.9621386,3.42748231 12.8909861,2.8640488 13.1650252,2.44951875 L13.2407434,2.34920863 C13.5725177,1.96213862 14.1359512,1.89098612 14.5504812,2.1650252 L14.6507914,2.2407434 L21.6507914,8.2407434 L21.6652928,8.25340382 C21.6892594,8.27477558 21.7121904,8.2972841 21.734001,8.32084474 L21.6507914,8.2407434 C21.6889472,8.27344835 21.7239762,8.30831048 21.7558784,8.34497623 C21.7730756,8.36507324 21.7899099,8.38611231 21.8058882,8.40782038 C21.8151416,8.41989401 21.8236606,8.43202008 21.8318784,8.44429036 C21.8450804,8.46456318 21.8579753,8.48542831 21.8701067,8.50678387 C21.8762567,8.51703426 21.8816422,8.5269353 21.8868481,8.53690687 L21.8983588,8.56022533 L21.8983588,8.56022533 Z" id="★-Icon"></path>
            </g>
        </g>
    </g>
</svg>