<?xml version="1.0" encoding="UTF-8"?>
<svg width="24px" height="24px" viewBox="0 0 24 24" version="1.1" xmlns="http://www.w3.org/2000/svg" xmlns:xlink="http://www.w3.org/1999/xlink">
    <title>DC478873-81C1-44BC-921E-6546FF84C3D0</title>
    <g id="🎛-Styleguide" stroke="none" stroke-width="1" fill="none" fill-rule="evenodd">
        <g id="Icons" transform="translate(-32.000000, -992.000000)" fill="#97A1A6">
            <g id="Icon" transform="translate(32.000000, 992.000000)">
                <path d="M8.61289944,18.2097046 L8.70710678,18.2928932 L12,21.585 L15.2928932,18.2928932 C15.6533772,17.9324093 16.2206082,17.9046797 16.6128994,18.2097046 L16.7071068,18.2928932 C17.0675907,18.6533772 17.0953203,19.2206082 16.7902954,19.6128994 L16.7071068,19.7071068 L12.7071068,23.7071068 C12.3466228,24.0675907 11.7793918,24.0953203 11.3871006,23.7902954 L11.2928932,23.7071068 L7.29289322,19.7071068 C6.90236893,19.3165825 6.90236893,18.6834175 7.29289322,18.2928932 C7.65337718,17.9324093 8.22060824,17.9046797 8.61289944,18.2097046 Z M11.3871006,0.209704612 C11.7793918,-0.0953202783 12.3466228,-0.0675907428 12.7071068,0.292893219 L12.7071068,0.292893219 L16.7071068,4.29289322 L16.7902954,4.38710056 C17.0953203,4.77939176 17.0675907,5.34662282 16.7071068,5.70710678 L16.7071068,5.70710678 L16.6128994,5.79029539 C16.2206082,6.09532028 15.6533772,6.06759074 15.2928932,5.70710678 L15.2928932,5.70710678 L12,2.415 L8.70710678,5.70710678 L8.61289944,5.79029539 C8.22060824,6.09532028 7.65337718,6.06759074 7.29289322,5.70710678 C6.90236893,5.31658249 6.90236893,4.68341751 7.29289322,4.29289322 L7.29289322,4.29289322 L11.2928932,0.292893219 Z" id="★-Icon"></path>
            </g>
        </g>
    </g>
</svg>