<?xml version="1.0" encoding="UTF-8"?>
<svg width="24px" height="24px" viewBox="0 0 24 24" version="1.1" xmlns="http://www.w3.org/2000/svg" xmlns:xlink="http://www.w3.org/1999/xlink">
    <title>747675E2-E688-4062-B59B-37D9738E62F5</title>
    <g id="🎛-Styleguide" stroke="none" stroke-width="1" fill="none" fill-rule="evenodd">
        <g id="Icons" transform="translate(-80.000000, -704.000000)" fill="#97A1A6">
            <g id="Icon" transform="translate(80.000000, 704.000000)">
                <path d="M20,1 C20.5522847,1 21,1.44771525 21,2 L21,3 L23,3 L23,20 C23,21.1045695 22.1045695,22 21,22 L3,22 C1.8954305,22 1,21.1045695 1,20 L1,3 L3,3 L3,2 C3,1.44771525 3.44771525,1 4,1 C4.55228475,1 5,1.44771525 5,2 L5,3 L19,3 L19,2 C19,1.44771525 19.4477153,1 20,1 Z M21,5 L3,5 L3,20 L21,20 L21,5 Z M8.83898097,8 L10.5,17 L8.5,17 L8.167,15 L6.833,15 L6.5,17 L4.5,17 L6.16101903,8 L8.83898097,8 Z M16,8 L16,9 L13.5,15 L16,15 L16,17 L11,17 L11,16 L13.499,10 L11.325,10 L11.325,8 L16,8 Z M19,8 L19,17 L17,17 L17,8 L19,8 Z M7.5,11 L7,14 L8,14 L7.5,11 Z" id="★-Icon"></path>
            </g>
        </g>
    </g>
</svg>