<?xml version="1.0" encoding="UTF-8"?>
<svg width="24px" height="24px" viewBox="0 0 24 24" version="1.1" xmlns="http://www.w3.org/2000/svg" xmlns:xlink="http://www.w3.org/1999/xlink">
    <title>E1D3B627-83F6-4BE7-A3E5-AA7CE6411729</title>
    <g id="🎛-Styleguide" stroke="none" stroke-width="1" fill="none" fill-rule="evenodd">
        <g id="Icons" transform="translate(-80.000000, -608.000000)" fill="#97A1A6">
            <g id="Icon" transform="translate(80.000000, 608.000000)">
                <path d="M5.22527887,14.0384761 C7.69239788,13.3335849 10.3076021,13.3335849 12.7747211,14.0384761 C15.1054708,14.7044045 16.7696413,16.7393151 16.9786553,19.1527617 L16.994677,19.3953314 L17,19.6400549 L17,23 L1,23 L1,19.6400549 C1,17.0389809 2.72428391,14.753046 5.22527887,14.0384761 Z M12.2252789,15.9615239 C10.1172697,15.3592356 7.88273031,15.3592356 5.77472113,15.9615239 C4.19802496,16.4120086 3.09140244,17.8134997 3.00539536,19.4361275 L3,19.6400549 L3,21 L15,21 L15.0002601,19.6628633 L14.9959794,19.4637851 C14.9211147,17.8253533 13.8068003,16.4133872 12.2252789,15.9615239 Z M18.000428,13.8414044 C18.2599056,13.8994693 18.5181144,13.9651598 18.7747211,14.0384761 C21.1054708,14.7044045 22.7696413,16.7393151 22.9786553,19.1527617 L22.994677,19.3953314 L23,19.6400549 L23,23 L18.9994604,22.9990458 L18.9994604,20.9990458 L21,21 L21.0002601,19.6628633 L20.9959794,19.4637851 C20.924234,17.8936213 19.8978552,16.5314442 18.4204943,16.0229543 L18.2252789,15.9615239 L17.9994604,15.9010458 L18.000428,13.8414044 Z M9,1 C12.3137085,1 15,3.6862915 15,7 C15,10.3137085 12.3137085,13 9,13 C5.6862915,13 3,10.3137085 3,7 C3,3.6862915 5.6862915,1 9,1 Z M16.5004604,2.22904576 C18.5287761,2.86631969 20,4.76134847 20,7 C20,9.23865153 18.5287761,11.1336803 16.5004604,11.7709542 L16.5009649,9.59809502 C17.3971348,9.07924369 18,8.1100252 18,7 C18,5.8899748 17.3971348,4.92075631 16.5009649,4.40190498 L16.5004604,2.22904576 Z M9,3 C6.790861,3 5,4.790861 5,7 C5,9.209139 6.790861,11 9,11 C11.209139,11 13,9.209139 13,7 C13,4.790861 11.209139,3 9,3 Z" id="★-Icon"></path>
            </g>
        </g>
    </g>
</svg>