<?xml version="1.0" encoding="UTF-8"?>
<svg width="24px" height="24px" viewBox="0 0 24 24" version="1.1" xmlns="http://www.w3.org/2000/svg" xmlns:xlink="http://www.w3.org/1999/xlink">
    <title>06C1F100-0B79-45B0-A383-2F4C55784252</title>
    <g id="🎛-Styleguide" stroke="none" stroke-width="1" fill="none" fill-rule="evenodd">
        <g id="Icons" transform="translate(-80.000000, -656.000000)" fill="currentColor">
            <g id="Icon" transform="translate(80.000000, 656.000000)">
                <path d="M13,20 C13.5522847,20 14,20.4477153 14,21 C14,21.5522847 13.5522847,22 13,22 L3,22 C2.44771525,22 2,21.5522847 2,21 C2,20.4477153 2.44771525,20 3,20 L13,20 Z M3,19 C2.44771525,19 2,18.5522847 2,18 L2,6 C2,5.44771525 2.44771525,5 3,5 L21,5 L21,5 C21.5522847,5 22,5.44771525 22,6 L22,18 L22,18 C22,18.5128358 21.6139598,18.9355072 21.1166211,18.9932723 L21,19 L21,19 L3,19 L3,19 Z M20,17 L20,7 L4,7 L4,17 L20,17 Z M17,2 C17.5522847,2 18,2.44771525 18,3 C18,3.55228475 17.5522847,4 17,4 L3,4 C2.44771525,4 2,3.55228475 2,3 C2,2.44771525 2.44771525,2 3,2 L17,2 Z" id="★-Icon"></path>
            </g>
        </g>
    </g>
</svg>
