<?xml version="1.0" encoding="UTF-8"?>
<svg width="24px" height="24px" viewBox="0 0 24 24" version="1.1" xmlns="http://www.w3.org/2000/svg" xmlns:xlink="http://www.w3.org/1999/xlink">
    <title>E0771ABC-A112-4229-8867-9E81F0604005</title>
    <g id="🎛-Styleguide" stroke="none" stroke-width="1" fill="none" fill-rule="evenodd">
        <g id="Icons" transform="translate(-176.000000, -464.000000)" fill="currentColor">
            <g id="Icon" transform="translate(176.000000, 464.000000)">
                <path d="M12,3 C12.5128358,3 12.9355072,3.38604019 12.9932723,3.88337887 L13,4 L13,17.585 L17.2928932,13.2928932 C17.6533772,12.9324093 18.2206082,12.9046797 18.6128994,13.2097046 L18.7071068,13.2928932 C19.0675907,13.6533772 19.0953203,14.2206082 18.7902954,14.6128994 L18.7071068,14.7071068 L12.7071068,20.7071068 C12.6786405,20.7355731 12.6484659,20.7623312 12.6167501,20.787214 L12.7071068,20.7071068 C12.6717127,20.7425008 12.6343256,20.774687 12.5953066,20.8036654 C12.5711307,20.8215099 12.546275,20.8382813 12.5206602,20.8539326 C12.5086131,20.8613931 12.4963944,20.8685012 12.4840621,20.8753288 C12.4642939,20.8862061 12.4438914,20.8966234 12.4230991,20.9063462 C12.4060985,20.914321 12.3887956,20.9218036 12.371336,20.9287745 C12.3515792,20.9366843 12.3317977,20.9438775 12.3117364,20.9504533 C12.2968513,20.9552713 12.2814633,20.9599023 12.265993,20.9641549 C12.2444365,20.9701664 12.2227461,20.9753602 12.2007941,20.9798348 C12.1833753,20.9832978 12.165949,20.9863719 12.1484669,20.9889822 C12.1281144,20.9920941 12.1070574,20.994564 12.085811,20.9963697 C12.0679231,20.997855 12.050591,20.9988772 12.0332468,20.9994506 C12.0224019,20.9998151 12.0112225,21 12,21 L11.9677454,20.9994829 C11.9497336,20.9989053 11.9317345,20.9978436 11.9137692,20.9962979 L12,21 C11.9493797,21 11.8996379,20.9962388 11.8510388,20.9889807 C11.834051,20.9863719 11.8166247,20.9832978 11.7992742,20.9797599 C11.7772539,20.9753602 11.7555635,20.9701664 11.7341604,20.964279 C11.7185367,20.9599023 11.7031487,20.9552713 11.6878575,20.9502619 C11.6682023,20.9438775 11.6484208,20.9366843 11.6289415,20.928896 C11.6112044,20.9218036 11.5939015,20.914321 11.5767785,20.9063266 C11.5561086,20.8966234 11.5357061,20.8862061 11.515723,20.8751242 C11.5036056,20.8685012 11.4913869,20.8613931 11.4792912,20.8540045 C11.453725,20.8382813 11.4288693,20.8215099 11.4048407,20.8036865 C11.3987914,20.7992821 11.3929267,20.7948255 11.3871006,20.7902954 C11.3515341,20.7623312 11.3213595,20.7355731 11.2928932,20.7071068 L5.29289322,14.7071068 C4.90236893,14.3165825 4.90236893,13.6834175 5.29289322,13.2928932 C5.65337718,12.9324093 6.22060824,12.9046797 6.61289944,13.2097046 L6.70710678,13.2928932 L11,17.585 L11,4 C11,3.44771525 11.4477153,3 12,3 Z" id="★-Icon"></path>
            </g>
        </g>
    </g>
</svg>
