<?xml version="1.0" encoding="UTF-8"?>
<svg width="24px" height="24px" viewBox="0 0 24 24" version="1.1" xmlns="http://www.w3.org/2000/svg" xmlns:xlink="http://www.w3.org/1999/xlink">
    <title>F3A24DBA-AE02-4966-8519-FB264F5EC7D0</title>
    <g id="🎛-Styleguide" stroke="none" stroke-width="1" fill="none" fill-rule="evenodd">
        <g id="Icons" transform="translate(-320.000000, -464.000000)" fill="currentColor">
            <g id="Icon" transform="translate(320.000000, 464.000000)">
                <path d="M14.6128994,5.20970461 L14.7071068,5.29289322 L20.7071068,11.2928932 C20.7425008,11.3282873 20.774687,11.3656744 20.8036654,11.4046934 L20.8753288,11.5159379 L20.9287745,11.628664 L20.9641549,11.734007 L20.9931658,11.8825258 L21,12 L20.9972121,12.0752385 L20.9797599,12.2007258 L20.9502619,12.3121425 L20.9063266,12.4232215 L20.8540045,12.5207088 L20.7803112,12.625449 L20.7071068,12.7071068 L14.7071068,18.7071068 C14.3165825,19.0976311 13.6834175,19.0976311 13.2928932,18.7071068 C12.9324093,18.3466228 12.9046797,17.7793918 13.2097046,17.3871006 L13.2928932,17.2928932 L17.586,12.999 L4,13 C3.44771525,13 3,12.5522847 3,12 C3,11.4871642 3.38604019,11.0644928 3.88337887,11.0067277 L4,11 L17.584,10.999 L13.2928932,6.70710678 C12.9324093,6.34662282 12.9046797,5.77939176 13.2097046,5.38710056 L13.2928932,5.29289322 C13.6233369,4.96244959 14.1275055,4.91161211 14.5114029,5.14038077 L14.6128994,5.20970461 Z" id="★-Icon"></path>
            </g>
        </g>
    </g>
</svg>
