<?xml version="1.0" encoding="UTF-8"?>
<svg width="24px" height="24px" viewBox="0 0 24 24" version="1.1" xmlns="http://www.w3.org/2000/svg" xmlns:xlink="http://www.w3.org/1999/xlink">
    <title>7D82905E-7B6C-4194-A5DD-0EB5F05CC8B9</title>
    <g id="🎛-Styleguide" stroke="none" stroke-width="1" fill="none" fill-rule="evenodd">
        <g id="Icons" transform="translate(-320.000000, -800.000000)" fill="currentColor">
            <g id="Icon" transform="translate(320.000000, 800.000000)">
                <path d="M20,4 C21.1045695,4 22,4.8954305 22,6 L22,18 C22,19.1045695 21.1045695,20 20,20 L4,20 C2.8954305,20 2,19.1045695 2,18 L2,6 C2,4.8954305 2.8954305,4 4,4 L20,4 Z M20,12 L4,12 L4,18 L20,18 L20,12 Z M20,6 L4,6 L4,9 L20,9 L20,6 Z" id="Combined-Shape"></path>
            </g>
        </g>
    </g>
</svg>
