<?xml version="1.0" encoding="UTF-8"?>
<svg width="24px" height="24px" viewBox="0 0 24 24" version="1.1" xmlns="http://www.w3.org/2000/svg" xmlns:xlink="http://www.w3.org/1999/xlink">
    <title>FB07186B-71EA-4968-A206-A7A2E4C36DBE</title>
    <g id="🎛-Styleguide" stroke="none" stroke-width="1" fill="none" fill-rule="evenodd">
        <g id="Icons" transform="translate(-128.000000, -896.000000)">
            <g id="Icon" transform="translate(128.000000, 896.000000)">
                <path d="M19.875,3 L4.125,3 C3.50367966,3 3,3.50367966 3,4.125 L3,19.875 C3,20.4963203 3.50367966,21 4.125,21 L19.875,21 C20.4963203,21 21,20.4963203 21,19.875 L21,4.125 C21,3.50367966 20.4963203,3 19.875,3 Z" id="★-Icon" fill="#D5DBDE"></path>
                <path d="M15.8540578,8.73661371 C16.2756644,8.37986967 16.9066422,8.43245115 17.2633863,8.85405776 C17.5926885,9.24323308 17.5732163,9.8108076 17.236667,10.1764128 L17.1459422,10.2633863 L10.6459422,15.7633863 C10.2819994,16.0713379 9.75736712,16.0764402 9.38918833,15.7918846 L9.29289322,15.7071068 L6.79289322,13.2071068 C6.40236893,12.8165825 6.40236893,12.1834175 6.79289322,11.7928932 C7.15337718,11.4324093 7.72060824,11.4046797 8.11289944,11.7097046 L8.20710678,11.7928932 L10.057,13.642 L15.8540578,8.73661371 Z" id="Path-4" fill="#FFFFFF" fill-rule="nonzero"></path>
            </g>
        </g>
    </g>
</svg>