<?xml version="1.0" encoding="UTF-8"?>
<svg width="24px" height="24px" viewBox="0 0 24 24" version="1.1" xmlns="http://www.w3.org/2000/svg" xmlns:xlink="http://www.w3.org/1999/xlink">
    <title>98D50470-C90E-467F-9A66-02C82C9250E7</title>
    <g id="🎛-Styleguide" stroke="none" stroke-width="1" fill="none" fill-rule="evenodd">
        <g id="Icons" transform="translate(-224.000000, -656.000000)" fill="currentColor">
            <g id="Icon" transform="translate(224.000000, 656.000000)">
                <path d="M19,2 C19.5522847,2 20,2.44771525 20,3 L20,4 L22,4 L22,19 C22,20.1045695 21.1045695,21 20,21 L4,21 C2.8954305,21 2,20.1045695 2,19 L2,4 L4,4 L4,3 C4,2.44771525 4.44771525,2 5,2 C5.55228475,2 6,2.44771525 6,3 L6,4 L18,4 L18,3 C18,2.44771525 18.4477153,2 19,2 Z M20,6 L4,6 L4,19 L20,19 L20,6 Z M18.2071068,11.7071068 L18.2928932,11.7928932 C18.6834175,12.1834175 18.6834175,12.8165825 18.2928932,13.2071068 L14.9142136,16.5857864 C14.133165,17.366835 12.866835,17.366835 12.0857864,16.5857864 L10.7071068,15.2071068 C10.3165825,14.8165825 10.3165825,14.1834175 10.7071068,13.7928932 L10.7928932,13.7071068 C11.1834175,13.3165825 11.8165825,13.3165825 12.2071068,13.7071068 L13.5,15 L16.7928932,11.7071068 C17.1834175,11.3165825 17.8165825,11.3165825 18.2071068,11.7071068 Z" id="★-Icon"></path>
            </g>
        </g>
    </g>
</svg>
