<?xml version="1.0" encoding="UTF-8"?>
<svg width="24px" height="24px" viewBox="0 0 24 24" version="1.1" xmlns="http://www.w3.org/2000/svg" xmlns:xlink="http://www.w3.org/1999/xlink">
    <title>53BC6EF5-0F53-4D82-99EF-07A109B021F5</title>
    <g id="🎛-Styleguide" stroke="none" stroke-width="1" fill="none" fill-rule="evenodd">
        <g id="Icons" transform="translate(-176.000000, -560.000000)" fill="currentColor">
            <g id="Icon" transform="translate(176.000000, 560.000000)">
                <path d="M15,2 C15.2652165,2 15.5195704,2.10535684 15.7071068,2.29289322 L15.7071068,2.29289322 L19.7071068,6.29289322 C19.8946432,6.4804296 20,6.73478351 20,7 L20,7 L19.999,7.983 L20,8 L19.999,8.017 L20,17 C20,17.5128358 19.6139598,17.9355072 19.1166211,17.9932723 L19,18 L15,18 L15,20 C15,20.5522847 14.5522847,21 14,21 L6,21 C5.44771525,21 5,20.5522847 5,20 L5,8 C5,7.44771525 5.44771525,7 6,7 L7.999,7 L8,3 C8,2.48716416 8.38604019,2.06449284 8.88337887,2.00672773 L9,2 Z M7.999,8.999 L7,9 L7,19 L13,19 L13,17.999 L9,18 C8.48716416,18 8.06449284,17.6139598 8.00672773,17.1166211 L8,17 L7.999,8.999 Z M13,4 L10.001,4 L10.001,16 L18.001,16 L18,9 L14,9 C13.4871642,9 13.0644928,8.61395981 13.0067277,8.11662113 L13,8 L13,4 Z M17.584,7 L15,4.416 L15,7 L17.584,7 Z" id="★-Icon"></path>
            </g>
        </g>
    </g>
</svg>
