<?xml version="1.0" encoding="UTF-8"?>
<svg width="24px" height="24px" viewBox="0 0 24 24" version="1.1" xmlns="http://www.w3.org/2000/svg" xmlns:xlink="http://www.w3.org/1999/xlink">
    <title>2B429D85-8A9E-476A-B2B4-41821DB87EE7</title>
    <g id="🎛-Styleguide" stroke="none" stroke-width="1" fill="none" fill-rule="evenodd">
        <g id="Icons" transform="translate(-80.000000, -800.000000)" fill="currentColor">
            <g id="Icon" transform="translate(80.000000, 800.000000)">
                <path d="M14,2 C14.5522847,2 15,2.44771525 15,3 L15,8 L13,8 L13,4 L5,4 L5,20 L13,20 L13,16 L15,16 L15,21 C15,21.5522847 14.5522847,22 14,22 L4,22 C3.44771525,22 3,21.5522847 3,21 L3,3 C3,2.44771525 3.44771525,2 4,2 L14,2 Z M18,8 L23,12 L18,16 L18,13 L8,13 L8,11 L18,11 L18,8 Z" id="★-Icon"></path>
            </g>
        </g>
    </g>
</svg>
