<?xml version="1.0" encoding="UTF-8"?>
<svg width="24px" height="24px" viewBox="0 0 24 24" version="1.1" xmlns="http://www.w3.org/2000/svg" xmlns:xlink="http://www.w3.org/1999/xlink">
    <title>62D52EDC-5E98-4D85-A649-3216C6BDD3FA</title>
    <g id="🎛-Styleguide" stroke="none" stroke-width="1" fill="none" fill-rule="evenodd">
        <g id="Icons" transform="translate(-80.000000, -512.000000)" fill="currentColor">
            <g id="Icon" transform="translate(80.000000, 512.000000)">
                <path d="M19,8 C19.5522847,8 20,8.44771525 20,9 C20,9.51283584 19.6139598,9.93550716 19.1166211,9.99327227 L19,10 L19,20 C19,20.2652165 18.8946432,20.5195704 18.7071068,20.7071068 L18.7071068,20.7071068 L17.7071068,21.7071068 C17.5195704,21.8946432 17.2652165,22 17,22 L17,22 L7,22 C6.73478351,22 6.4804296,21.8946432 6.29289322,21.7071068 L6.29289322,21.7071068 L5.29289322,20.7071068 C5.10535684,20.5195704 5,20.2652165 5,20 L5,20 L5,10 C4.44771525,10 4,9.55228475 4,9 C4,8.48716416 4.38604019,8.06449284 4.88337887,8.00672773 L5,8 L19,8 Z M9,10 L7,10 L7,19.585 L7.415,20 L16.584,20 L17,19.584 L17,10 L15,10 L15,17 C15,17.5522847 14.5522847,18 14,18 C13.4871642,18 13.0644928,17.6139598 13.0067277,17.1166211 L13,17 L13,10 L11,10 L11,17 C11,17.5522847 10.5522847,18 10,18 C9.48716416,18 9.06449284,17.6139598 9.00672773,17.1166211 L9,17 L9,10 Z M15,2 C15.5128358,2 15.9355072,2.38604019 15.9932723,2.88337887 L16,3 L16,5 L19,5 C19.5522847,5 20,5.44771525 20,6 C20,6.51283584 19.6139598,6.93550716 19.1166211,6.99327227 L19,7 L5,7 C4.44771525,7 4,6.55228475 4,6 C4,5.48716416 4.38604019,5.06449284 4.88337887,5.00672773 L5,5 L8,5 L8,3 C8,2.48716416 8.38604019,2.06449284 8.88337887,2.00672773 L9,2 L15,2 Z M14,4 L10,4 L10,5 L14,5 L14,4 Z" id="★-Icon"></path>
            </g>
        </g>
    </g>
</svg>
