<?xml version="1.0" encoding="UTF-8"?>
<svg width="24px" height="24px" viewBox="0 0 24 24" version="1.1" xmlns="http://www.w3.org/2000/svg" xmlns:xlink="http://www.w3.org/1999/xlink">
    <title>7D375761-473E-48D1-A33E-8C1C7B77A90F</title>
    <g id="🎛-Styleguide" stroke="none" stroke-width="1" fill="none" fill-rule="evenodd">
        <g id="Icons" transform="translate(-224.000000, -608.000000)" fill="#97A1A6">
            <g id="Icon" transform="translate(224.000000, 608.000000)">
                <path d="M14.9239237,13.8245134 L15.3538062,13.9255314 L15.7747211,14.0384761 L16.2359233,14.1702481 C18.2901549,14.7571714 19.8694194,16.3890549 20.4019836,18.4624674 L20.4587557,18.7036324 L20.5059601,18.9529979 L20.9863939,21.835601 C21.0816333,22.407037 20.6744619,22.9304281 20.114027,22.9936198 L20,23 L4,23 C3.42068178,23 2.97135057,22.5123237 3.00115357,21.9491255 L3.01360608,21.835601 L3.49403993,18.9529979 C3.84526737,16.8456332 5.28840113,15.0922123 7.288423,14.3289453 L7.52163571,14.2453064 L7.76407671,14.1702481 L8.22527887,14.0384761 C10.4089267,13.4145767 12.7104082,13.3424157 14.9239237,13.8245134 Z M14.2677525,15.732 L12,18 L9.73194539,15.7309665 C9.54476775,15.7678216 9.35828152,15.8092801 9.1726562,15.8553401 L8.77472113,15.9615239 L8.33553607,16.0867309 L8.13699846,16.1481463 C6.80815253,16.5948299 5.81372655,17.704283 5.50913643,19.0649295 L5.46682778,19.2817958 L5.18,21 L18.819,21 L18.5372094,19.3044134 L18.4986036,19.100211 C18.204816,17.7294278 17.2147378,16.6160929 15.8971836,16.1598204 L15.686481,16.093296 L15.2411366,15.9659139 L14.844,15.859 L14.4510142,15.7685033 L14.2677525,15.732 Z M15.6171636,0 C16.1215101,-9.26469453e-17 16.546923,0.375570047 16.609449,0.876025711 L16.9528792,3.61240021 C17.6135062,4.57642263 18,5.74307609 18,7 C18,10.3137085 15.3137085,13 12,13 C8.6862915,13 6,10.3137085 6,7 C6,5.74221044 6.38702633,4.57481572 7.0484861,3.61040872 L7.39045771,0.875904821 C7.45303891,0.37550284 7.87842797,9.26384181e-17 8.38272803,0 L15.6171636,0 Z M14.9325805,4.27968538 L14.734317,4.3046875 C13.6059178,4.43489583 12.6944788,4.5 12,4.5 C11.2656641,4.5 10.2886782,4.42720857 9.06904209,4.28162571 C8.40501377,4.99344636 8,5.94942516 8,7 C8,9.209139 9.790861,11 12,11 C14.209139,11 16,9.209139 16,7 C16,5.94942516 15.5949862,4.99344636 14.9325805,4.27968538 Z" id="★-Icon"></path>
            </g>
        </g>
    </g>
</svg>