<?xml version="1.0" encoding="UTF-8"?>
<svg width="24px" height="24px" viewBox="0 0 24 24" version="1.1" xmlns="http://www.w3.org/2000/svg" xmlns:xlink="http://www.w3.org/1999/xlink">
    <title>87C06D88-E9E8-463D-9D14-E3F315703D83</title>
    <g id="🎛-Styleguide" stroke="none" stroke-width="1" fill="none" fill-rule="evenodd">
        <g id="Icons" transform="translate(-176.000000, -800.000000)" fill="currentColor">
            <g id="Icon" transform="translate(176.000000, 800.000000)">
                <path d="M22,2 C22.5522847,2 23,2.44771525 23,3 L23,3 L23,17 C23,17.5522847 22.5522847,18 22,18 L22,18 L13.167,18 L13.5,20 L16,20 L16,22 L8,22 L8,20 L10.5,20 L10.833,18 L2,18 C1.48716416,18 1.06449284,17.6139598 1.00672773,17.1166211 L1,17 L1,3 C1,2.44771525 1.44771525,2 2,2 L2,2 Z M21,4 L3,4 L3,16 L21,16 L21,4 Z M16.6460411,6.8877377 L16.7029462,6.99343288 L16.7029462,6.99343288 C17.1823651,8.01249561 17.8656388,9.46487644 18.7527674,11.3505754 L18.9459866,11.7612862 L18.9459866,11.7612862 C19.1050371,12.0993672 18.9599042,12.5023718 18.6218232,12.6614223 C18.6141183,12.6650471 18.6063456,12.6685261 18.5985014,12.6718387 C18.580904,12.6793197 18.5641019,12.6864036 18.5480954,12.6930902 C16.5327308,13.5349998 14.3206687,14 12,14 C9.71728888,14 7.53966063,13.5500868 5.55095394,12.734099 C5.53917985,12.7292679 5.52703213,12.7242488 5.51451076,12.7190415 C5.11203019,12.5516361 4.92143919,12.0896625 5.08882289,11.6871728 L5.09596793,11.6705329 L5.09596793,11.6705329 L5.10349286,11.6540613 L5.10349286,11.6540613 C5.99377448,9.76299247 6.68781052,8.28877362 7.18560098,7.2314048 L7.2892666,7.01120612 L7.2892666,7.01120612 C7.53483884,6.48958016 8.13672449,6.24013935 8.67927752,6.43516647 C8.70176771,6.44324942 8.72338896,6.4508621 8.74414125,6.45800451 C9.76476864,6.80927814 10.8601116,7 12,7 C13.1411167,7 14.2375919,6.80886689 15.2591578,6.4568684 C15.2838781,6.44835061 15.3098347,6.43916375 15.3370279,6.42930782 C15.8316515,6.25001174 16.3774764,6.44804659 16.6460411,6.8877377 Z M15.229,8.559 C14.1821755,8.85114773 13.1008914,9 12,9 C11.0565544,9 10.1275082,8.89067988 9.22744835,8.67767791 L8.771,8.559 L7.478,11.305 L7.65010903,11.3601964 C8.90537418,11.7398564 10.2145058,11.9543693 11.5528406,11.9934753 L12,12 C13.4936904,12 14.9547209,11.7821054 16.3492754,11.3603825 L16.521,11.305 L15.229,8.559 Z M6.5,5 L6.5,6 L4,6 L4,5 L6.5,5 Z M20,5 L20,6 L19,6 L19,5 L20,5 Z" id="★-Icon"></path>
            </g>
        </g>
    </g>
</svg>
