<?xml version="1.0" encoding="UTF-8"?>
<svg width="24px" height="24px" viewBox="0 0 24 24" version="1.1" xmlns="http://www.w3.org/2000/svg" xmlns:xlink="http://www.w3.org/1999/xlink">
    <title>75C7DF22-DFEF-45EB-B4D8-2B0F067F7193</title>
    <g id="🎛-Styleguide" stroke="none" stroke-width="1" fill="none" fill-rule="evenodd">
        <g id="Icons" transform="translate(-128.000000, -512.000000)" fill="#97A1A6">
            <g id="Icon" transform="translate(128.000000, 512.000000)">
                <path d="M12,1 C18.07475,1 23,5.92525 23,12 C23,18.07475 18.07475,23 12,23 C5.923875,23 1,18.07475 1,12 C1,5.92525 5.923875,1 12,1 Z M12,3 C7.02943725,3 3,7.02943725 3,12 C3,16.9705627 7.02943725,21 12,21 C16.9705627,21 21,16.9705627 21,12 C21,7.02943725 16.9705627,3 12,3 Z M12.25,17 C12.8022847,17 13.25,17.4477153 13.25,18 L13.25,18.5 C13.25,19.0522847 12.8022847,19.5 12.25,19.5 L11.75,19.5 C11.1977153,19.5 10.75,19.0522847 10.75,18.5 L10.75,18 C10.75,17.4477153 11.1977153,17 11.75,17 L12.25,17 Z M12,4.8 C14.8306443,4.8 16.7,6.48242015 16.7,9.5 C16.7,10.9440676 16.155903,11.7382954 14.7485646,12.9725356 L14.5309496,13.1611079 C13.4751331,14.0660936 13.2,14.4329376 13.2,15 C13.2,15.6627417 12.6627417,16.2 12,16.2 C11.3372583,16.2 10.8,15.6627417 10.8,15 C10.8,13.5559324 11.344097,12.7617046 12.7514354,11.5274644 L12.9690504,11.3388921 C14.0248669,10.4339064 14.3,10.0670624 14.3,9.5 C14.3,7.86757985 13.5582446,7.2 12,7.2 C10.4417554,7.2 9.7,7.86757985 9.7,9.5 C9.7,10.1627417 9.1627417,10.7 8.5,10.7 C7.8372583,10.7 7.3,10.1627417 7.3,9.5 C7.3,6.48242015 9.16935572,4.8 12,4.8 Z" id="★-Icon"></path>
            </g>
        </g>
    </g>
</svg>