<?xml version="1.0" encoding="UTF-8"?>
<svg width="24px" height="24px" viewBox="0 0 24 24" version="1.1" xmlns="http://www.w3.org/2000/svg" xmlns:xlink="http://www.w3.org/1999/xlink">
    <title>7970257C-965D-4CA1-8C6F-E4E3051494AF</title>
    <g id="🎛-Styleguide" stroke="none" stroke-width="1" fill="none" fill-rule="evenodd">
        <g id="Icons" transform="translate(-128.000000, -560.000000)" fill="#97A1A6">
            <g id="Icon" transform="translate(128.000000, 560.000000)">
                <path d="M21,18 C21.5522847,18 22,18.4477153 22,19 L22,20 C22,20.5522847 21.5522847,21 21,21 L3,21 C2.44771525,21 2,20.5522847 2,20 L2,19 C2,18.4477153 2.44771525,18 3,18 L21,18 Z M21,10.5 C21.5522847,10.5 22,10.9477153 22,11.5 L22,12.5 C22,13.0522847 21.5522847,13.5 21,13.5 L3,13.5 C2.44771525,13.5 2,13.0522847 2,12.5 L2,11.5 C2,10.9477153 2.44771525,10.5 3,10.5 L21,10.5 Z M21,3 C21.5522847,3 22,3.44771525 22,4 L22,5 C22,5.55228475 21.5522847,6 21,6 L3,6 C2.44771525,6 2,5.55228475 2,5 L2,4 C2,3.44771525 2.44771525,3 3,3 L21,3 Z" id="★-Icon"></path>
            </g>
        </g>
    </g>
</svg>