<?xml version="1.0" encoding="UTF-8"?>
<svg width="24px" height="24px" viewBox="0 0 24 24" version="1.1" xmlns="http://www.w3.org/2000/svg" xmlns:xlink="http://www.w3.org/1999/xlink">
    <title>A5802E7A-BD8E-4AC8-9723-349ECC326C97</title>
    <g id="🎛-Styleguide" stroke="none" stroke-width="1" fill="none" fill-rule="evenodd">
        <g id="Icons" transform="translate(-80.000000, -848.000000)" fill="currentColor">
            <g id="Icon" transform="translate(80.000000, 848.000000)">
                <path d="M11,18 L12,19 L13,18 L19,18 L19,20 L14,20 L12,22 L10,20 L5,20 L5,18 L11,18 Z M1.69052948,8.27590315 L1.76822128,8.3598156 L5,12.237 L5,8 L7,8 L7,15 C7,15.8963261 5.92596573,16.322527 5.30947052,15.7240968 L5.23177872,15.6401844 L2,11.763 L2,16 L0,16 L0,9 C0,8.10367392 1.07403427,7.67747296 1.69052948,8.27590315 Z M12.5555556,8 C14.4578697,8 16,9.54213031 16,11.4444444 L16,11.4444444 L16,12.5555556 C16,14.4578697 14.4578697,16 12.5555556,16 L12.5555556,16 L11.4444444,16 C9.54213031,16 8,14.4578697 8,12.5555556 L8,12.5555556 L8,11.4444444 C8,9.54213031 9.54213031,8 11.4444444,8 L11.4444444,8 Z M19,8 L19,12.5555556 C19,13.306374 19.5728552,13.923395 20.3053348,13.9933877 L20.4444444,14 L20.5555556,14 C21.306374,14 21.923395,13.4271448 21.9933877,12.6946652 L22,12.5555556 L22,8 L24,8 L24,12.5555556 C24,14.3944592 22.5589649,15.8967911 20.7445426,15.9949033 L20.5555556,16 L20.4444444,16 C18.6055408,16 17.1032089,14.5589649 17.0050967,12.7445426 L17,12.5555556 L17,8 L19,8 Z M12.5555556,10 L11.4444444,10 C10.6466998,10 10,10.6466998 10,11.4444444 L10,11.4444444 L10,12.5555556 C10,13.3533002 10.6466998,14 11.4444444,14 L11.4444444,14 L12.5555556,14 C13.3533002,14 14,13.3533002 14,12.5555556 L14,12.5555556 L14,11.4444444 C14,10.6466998 13.3533002,10 12.5555556,10 L12.5555556,10 Z M12,2 L14,4 L19,4 L19,6 L13,6 L12,5 L11,6 L5,6 L5,4 L10,4 L12,2 Z" id="★-Icon"></path>
            </g>
        </g>
    </g>
</svg>
