<?xml version="1.0" encoding="UTF-8"?>
<svg width="24px" height="24px" viewBox="0 0 24 24" version="1.1" xmlns="http://www.w3.org/2000/svg" xmlns:xlink="http://www.w3.org/1999/xlink">
    <title>22EDE2A1-44AB-4C36-90C7-9B7B6D6D057F</title>
    <g id="🎛-Styleguide" stroke="none" stroke-width="1" fill="none" fill-rule="evenodd">
        <g id="Icons" transform="translate(-176.000000, -848.000000)" fill="currentColor">
            <g id="Icon" transform="translate(176.000000, 848.000000)">
                <path d="M18,0 L18.0010101,10.0710334 C17.6740854,10.0242218 17.3398714,10 17,10 C16.6604758,10 16.3265974,10.0241724 15.9999918,10.07089 L16,2 L2,2 L2,21.56 L5.04876668,20.9506389 L9,21.938 L11.489244,21.3169221 C12.06418,22.049828 12.7821602,22.6651726 13.6011449,23.1209163 L13,23 L9,24 L5,23 L1.49213975e-13,24 L1.49213975e-13,0 L18,0 Z M17,11 C20.3137085,11 23,13.6862915 23,17 C23,20.3137085 20.3137085,23 17,23 C13.6862915,23 11,20.3137085 11,17 C11,13.6862915 13.6862915,11 17,11 Z M17,20 C16.4477153,20 16,20.4477153 16,21 C16,21.5522847 16.4477153,22 17,22 C17.5522847,22 18,21.5522847 18,21 C18,20.4477153 17.5522847,20 17,20 Z M17,12.5 C16.4871642,12.5 16.0644928,12.8860402 16.0067277,13.3833789 L16,13.5 L16,18 C16,18.5522847 16.4477153,19 17,19 C17.5128358,19 17.9355072,18.6139598 17.9932723,18.1166211 L18,18 L18,13.5 C18,12.9477153 17.5522847,12.5 17,12.5 Z M14,6 L14,9 L4,9 L4,6 L14,6 Z" id="★-Icon"></path>
            </g>
        </g>
    </g>
</svg>
