<?xml version="1.0" encoding="UTF-8"?>
<svg width="24px" height="24px" viewBox="0 0 24 24" version="1.1" xmlns="http://www.w3.org/2000/svg" xmlns:xlink="http://www.w3.org/1999/xlink">
    <title>19F3CB72-42C4-4E06-84A6-20859CC3CA3C</title>
    <g id="🎛-Styleguide" stroke="none" stroke-width="1" fill="none" fill-rule="evenodd">
        <g id="Icons" transform="translate(-320.000000, -704.000000)" fill="#97A1A6">
            <g id="Icon" transform="translate(320.000000, 704.000000)">
                <path d="M15,3 C15.5522847,3 16,3.44771525 16,4 L16,4 L16,6 L19,6 C20.5976809,6 21.9036609,7.24891996 21.9949073,8.82372721 L22,9 L22,18 C22,19.6568542 20.6568542,21 19,21 L19,21 L5,21 C3.34314575,21 2,19.6568542 2,18 L2,18 L2,9 C2,7.34314575 3.34314575,6 5,6 L5,6 L8,6 L8,4 C8,3.48716416 8.38604019,3.06449284 8.88337887,3.00672773 L9,3 Z M10,13 L4,13 L4,18 C4,18.5522847 4.44771525,19 5,19 L5,19 L19,19 C19.5522847,19 20,18.5522847 20,18 L20,18 L20,13 L14,13 L14,13 C14,13.5522847 13.5522847,14 13,14 L11,14 C10.4477153,14 10,13.5522847 10,13 Z M19,8 L5,8 C4.44771525,8 4,8.44771525 4,9 L4,9 L4,11 L20,11 L20,9 C20,8.44771525 19.5522847,8 19,8 L19,8 Z M14,5 L10,5 L10,6 L14,6 L14,5 Z" id="★-Icon"></path>
            </g>
        </g>
    </g>
</svg>