<?xml version="1.0" encoding="UTF-8"?>
<svg width="24px" height="24px" viewBox="0 0 24 24" version="1.1" xmlns="http://www.w3.org/2000/svg" xmlns:xlink="http://www.w3.org/1999/xlink">
    <title>575FA941-B8BA-4A21-8C69-95CD867EFD70</title>
    <g id="🎛-Styleguide" stroke="none" stroke-width="1" fill="none" fill-rule="evenodd">
        <g id="Icons" transform="translate(-224.000000, -560.000000)" fill="#97A1A6">
            <g id="Icon" transform="translate(224.000000, 560.000000)">
                <path d="M15,2 C15.2652165,2 15.5195704,2.10535684 15.7071068,2.29289322 L15.7071068,2.29289322 L19.7071068,6.29289322 C19.8946432,6.4804296 20,6.73478351 20,7 L20,7 L20,21 C20,21.5522847 19.5522847,22 19,22 L19,22 L5,22 C4.44771525,22 4,21.5522847 4,21 L4,21 L4,3 C4,2.44771525 4.44771525,2 5,2 L5,2 Z M12,4 L6,4 L6,20 L18,20 L18,9 L13,9 C12.4871642,9 12.0644928,8.61395981 12.0067277,8.11662113 L12,8 L12,4 Z M14,12 L14,14 L16,14 L16,16 L14,16 L14,18 L12,18 L12,16 L10,16 L10,14 L12,14 L12,12 L14,12 Z M14.585,4 L14,4 L14,7 L17.586,7 L14.585,4 Z" id="★-Icon"></path>
            </g>
        </g>
    </g>
</svg>