<?xml version="1.0" encoding="UTF-8"?>
<svg width="24px" height="24px" viewBox="0 0 24 24" version="1.1" xmlns="http://www.w3.org/2000/svg" xmlns:xlink="http://www.w3.org/1999/xlink">
    <title>C5F8B367-FD85-4A05-867F-B525C8C02269</title>
    <g id="🎛-Styleguide" stroke="none" stroke-width="1" fill="none" fill-rule="evenodd">
        <g id="Icons" transform="translate(-128.000000, -752.000000)" fill="#97A1A6">
            <g id="Icon" transform="translate(128.000000, 752.000000)">
                <path d="M21,2 L22,11 L13,10 L16.2112122,6.78859845 C15.0605592,5.8576219 13.5953994,5.3 12,5.3 C8.29969218,5.3 5.3,8.29969218 5.3,12 C5.3,15.7003078 8.29969218,18.7 12,18.7 C13.8498999,18.7 15.5246941,17.9502828 16.7371161,16.7381147 L18.5750977,18.5770882 C16.8922075,20.2594724 14.5676179,21.3 12,21.3 C6.86375183,21.3 2.7,17.1362482 2.7,12 C2.7,6.86375183 6.86375183,2.7 12,2.7 C14.3135763,2.7 16.4298361,3.54481284 18.0571204,4.94277972 L21,2 Z" id="★-Icon"></path>
            </g>
        </g>
    </g>
</svg>