<?xml version="1.0" encoding="UTF-8"?>
<svg width="24px" height="24px" viewBox="0 0 24 24" version="1.1" xmlns="http://www.w3.org/2000/svg" xmlns:xlink="http://www.w3.org/1999/xlink">
    <title>358202B0-7AFA-4AB0-A163-272995FB7E7E</title>
    <g id="🎛-Styleguide" stroke="none" stroke-width="1" fill="none" fill-rule="evenodd">
        <g id="Icons" transform="translate(-128.000000, -992.000000)" fill="currentColor">
            <g id="Icon" transform="translate(128.000000, 992.000000)">
                <path d="M10,13 L7.28718867,15.7138107 C8.38595295,17.1062265 10.0886005,18 12,18 C13.7765803,18 15.3728184,17.2278632 16.4714352,16.0008689 L18.9290715,16.0011597 C17.5456688,18.3917256 14.9606507,20 12,20 C9.53640247,20 7.33289782,18.88641 5.86538941,17.1351334 L4,19 L4,13 L10,13 Z M12,4 C14.4640659,4 16.66794,5.11401345 18.1354475,6.8658655 L20,5 L20,11 L14,11 L16.7136952,8.28730967 C15.6149603,6.89425298 13.9119121,6 12,6 C9.77913667,6 7.84009304,7.20661355 6.80267039,9.00003939 L4.58150511,9.0000295 C5.76827252,6.06818353 8.64261119,4 12,4 Z" id="★-Icon"></path>
            </g>
        </g>
    </g>
</svg>
