<?xml version="1.0" encoding="UTF-8"?>
<svg width="24px" height="24px" viewBox="0 0 24 24" version="1.1" xmlns="http://www.w3.org/2000/svg" xmlns:xlink="http://www.w3.org/1999/xlink">
    <title>A8120E49-1DE9-4BBC-94CD-228969FF1F6C</title>
    <g id="🎛-Styleguide" stroke="none" stroke-width="1" fill="none" fill-rule="evenodd" stroke-linejoin="round">
        <g id="Icons" transform="translate(-32.000000, -752.000000)" stroke="currentColor" stroke-width="2">
            <g id="Icon" transform="translate(32.000000, 752.000000)">
                <path d="M13.5,2 L13.7756828,4.19776175 C14.6707068,4.40059915 15.5087677,4.75349285 16.2620231,5.2286005 L18.0104076,3.86827202 L20.131728,5.98959236 L18.7713995,7.73797689 C19.2466841,8.49151288 19.5996637,9.32991753 19.8024649,10.2253174 L22,10.5 L22,13.5 L19.8022382,13.7756828 C19.5994008,14.6707068 19.2465072,15.5087677 18.7713995,16.2620231 L20.131728,18.0104076 L18.0104076,20.131728 L16.2620231,18.7713995 C15.5087677,19.2465072 14.6707068,19.5994008 13.7756828,19.8022382 L13.5,22 L10.5,22 L10.2253174,19.8024649 C9.32991753,19.5996637 8.49151288,19.2466841 7.73797689,18.7713995 L5.98959236,20.131728 L3.86827202,18.0104076 L5.2286005,16.2620231 C4.75349285,15.5087677 4.40059915,14.6707068 4.19776175,13.7756828 L2,13.5 L2,10.5 L4.19753514,10.2253174 C4.40033626,9.32991753 4.75331587,8.49151288 5.2286005,7.73797689 L3.86827202,5.98959236 L5.98959236,3.86827202 L7.73797689,5.2286005 C8.49151288,4.75331587 9.32991753,4.40033626 10.2253174,4.19753514 L10.5,2 L13.5,2 Z M12,8 C9.790861,8 8,9.790861 8,12 C8,14.209139 9.790861,16 12,16 C14.209139,16 16,14.209139 16,12 C16,9.790861 14.209139,8 12,8 Z" id="Combined-Shape"></path>
            </g>
        </g>
    </g>
</svg>
