<?xml version="1.0" encoding="UTF-8"?>
<svg width="36px" height="24px" viewBox="0 0 36 24" version="1.1" xmlns="http://www.w3.org/2000/svg" xmlns:xlink="http://www.w3.org/1999/xlink">
    <title>7C9DA663-A4FE-4BE7-8DC0-C69FF8EDF04C</title>
    <g id="🎛-Styleguide" stroke="none" stroke-width="1" fill="none" fill-rule="evenodd">
        <g id="Icons" transform="translate(-128.000000, -944.000000)" fill="#97A1A6">
            <g id="Icon" transform="translate(128.000000, 944.000000)">
                <path d="M24,0 C30.627417,0 36,5.372583 36,12 C36,18.627417 30.627417,24 24,24 L12,24 C5.372583,24 0,18.627417 0,12 C0,5.372583 5.372583,0 12,0 L24,0 Z M24,2 L12,2 C6.4771525,2 2,6.4771525 2,12 C2,17.3372189 6.18124692,21.6978553 11.7127007,21.9886065 L12,22 L24,22 C29.5228475,22 34,17.5228475 34,12 C34,6.57076009 29.6733292,2.15206828 24,2 Z M12,4 C16.418278,4 20,7.581722 20,12 C20,16.418278 16.418278,20 12,20 C7.581722,20 4,16.418278 4,12 C4,7.581722 7.581722,4 12,4 Z" id="Combined-Shape"></path>
            </g>
        </g>
    </g>
</svg>