<?xml version="1.0" encoding="UTF-8"?>
<svg width="36px" height="24px" viewBox="0 0 36 24" version="1.1" xmlns="http://www.w3.org/2000/svg" xmlns:xlink="http://www.w3.org/1999/xlink">
    <title>53D991D0-EBFA-4C0A-8333-B644610D28AA</title>
    <defs>
        <circle id="path-1" cx="24" cy="12" r="8"></circle>
        <filter x="-25.0%" y="-12.5%" width="150.0%" height="150.0%" filterUnits="objectBoundingBox" id="filter-2">
            <feMorphology radius="1" operator="erode" in="SourceAlpha" result="shadowSpreadOuter1"></feMorphology>
            <feOffset dx="0" dy="2" in="shadowSpreadOuter1" result="shadowOffsetOuter1"></feOffset>
            <feGaussianBlur stdDeviation="2" in="shadowOffsetOuter1" result="shadowBlurOuter1"></feGaussianBlur>
            <feColorMatrix values="0 0 0 0 0   0 0 0 0 0   0 0 0 0 0  0 0 0 0.5 0" type="matrix" in="shadowBlurOuter1"></feColorMatrix>
        </filter>
    </defs>
    <g id="🎛-Styleguide" stroke="none" stroke-width="1" fill="none" fill-rule="evenodd">
        <g id="Icons" transform="translate(-176.000000, -944.000000)">
            <g id="Group" transform="translate(176.000000, 944.000000)">
                <path d="M24,0 C30.627417,0 36,5.372583 36,12 C36,18.627417 30.627417,24 24,24 L12,24 C5.372583,24 0,18.627417 0,12 C0,5.372583 5.372583,0 12,0 L24,0 Z M24,2 L12,2 C6.4771525,2 2,6.4771525 2,12 C2,17.4292399 6.32667079,21.8479317 11.7200952,21.9961582 L12,22 L24,22 C29.5228475,22 34,17.5228475 34,12 C34,6.57076009 29.6733292,2.15206828 24.2799048,2.0038418 L24,2 Z" id="Rectangle" fill="#5CCAE6"></path>
                <g id="Oval">
                    <use fill="black" fill-opacity="1" filter="url(#filter-2)" xlink:href="#path-1"></use>
                    <use fill="#1EA5C7" fill-rule="evenodd" xlink:href="#path-1"></use>
                </g>
            </g>
        </g>
    </g>
</svg>