<?xml version="1.0" encoding="UTF-8"?>
<svg width="24px" height="24px" viewBox="0 0 24 24" version="1.1" xmlns="http://www.w3.org/2000/svg" xmlns:xlink="http://www.w3.org/1999/xlink">
    <title>8C28C1D8-9F18-4EAE-A8CF-6AA02A4D4B7F</title>
    <g id="🎛-Styleguide" stroke="none" stroke-width="1" fill="none" fill-rule="evenodd">
        <g id="Icons" transform="translate(-176.000000, -608.000000)" fill="#97A1A6">
            <g id="Icon" transform="translate(175.999753, 608.000000)">
                <path d="M5.22552634,14.0384761 C7.40917417,13.4145767 9.71065563,13.3424157 11.9241712,13.8245134 L12.3540537,13.9255314 L12.7749686,14.0384761 L13.2361708,14.1702481 C15.2904023,14.7571714 16.8696668,16.3890549 17.4022311,18.4624674 L17.4590031,18.7036324 L17.5062075,18.9529979 L17.9866414,21.835601 C18.0818807,22.407037 17.6747094,22.9304281 17.1142745,22.9936198 L17.0002475,23 L1.00024747,23 C0.420929245,23 -0.0284019661,22.5123237 0.0014010359,21.9491255 L0.0138535435,21.835601 L0.494287402,18.9529979 C0.84551484,16.8456332 2.2886486,15.0922123 4.28867046,14.3289453 L4.52188317,14.2453064 L4.76432418,14.1702481 L5.22552634,14.0384761 Z M11.4512617,15.7685033 C9.70854001,15.3964606 7.90331477,15.425966 6.17290367,15.8553401 L5.7749686,15.9615239 L5.33578354,16.0867309 L5.13724593,16.1481463 C3.8084,16.5948299 2.81397402,17.704283 2.5093839,19.0649295 L2.46707525,19.2817958 L2.18024747,21 L15.8192475,21 L15.5374568,19.3044134 L15.498851,19.100211 C15.2050634,17.7294278 14.2149853,16.6160929 12.897431,16.1598204 L12.6867285,16.093296 L12.2413841,15.9659139 L11.8442475,15.859 L11.4512617,15.7685033 Z M9.00024747,1 C12.313956,1 15.0002475,3.6862915 15.0002475,7 C15.0002475,10.3137085 12.313956,13 9.00024747,13 C5.68653897,13 3.00024747,10.3137085 3.00024747,7 C3.00024747,3.6862915 5.68653897,1 9.00024747,1 Z M19.7073542,7.05025253 L23.2428882,10.5857864 C23.9884345,11.3313328 24.022323,12.5190467 23.3445536,13.3047901 L23.2428882,13.4142136 L19.7073542,16.9497475 C19.31683,17.3402718 18.683665,17.3402718 18.2931407,16.9497475 C17.9026164,16.5592232 17.9026164,15.9260582 18.2931407,15.5355339 L20.828,13 L16.0002475,13 C15.4479627,13 15.0002475,12.5522847 15.0002475,12 C15.0002475,11.4477153 15.4479627,11 16.0002475,11 L20.828,11 L18.2931407,8.46446609 C17.9026164,8.0739418 17.9026164,7.44077682 18.2931407,7.05025253 C18.683665,6.65972824 19.31683,6.65972824 19.7073542,7.05025253 Z M9.00024747,3 C11.2093865,3 13.0002475,4.790861 13.0002475,7 C13.0002475,9.209139 11.2093865,11 9.00024747,11 C6.79110847,11 5.00024747,9.209139 5.00024747,7 C5.00024747,4.790861 6.79110847,3 9.00024747,3 Z" id="★-Icon"></path>
            </g>
        </g>
    </g>
</svg>