<?xml version="1.0" encoding="UTF-8"?>
<svg width="24px" height="24px" viewBox="0 0 24 24" version="1.1" xmlns="http://www.w3.org/2000/svg" xmlns:xlink="http://www.w3.org/1999/xlink">
    <title>980C8F33-FA5C-4ACC-947C-86673FEA6A65</title>
    <g id="🎛-Styleguide" stroke="none" stroke-width="1" fill="none" fill-rule="evenodd">
        <g id="Icons" transform="translate(-176.000000, -512.000000)" fill="currentColor">
            <g id="Icon" transform="translate(176.000000, 512.000000)">
                <path d="M12,1 C18.0751322,1 23,5.92486775 23,12 C23,18.0751322 18.0751322,23 12,23 C5.92486775,23 1,18.0751322 1,12 C1,5.92486775 5.92486775,1 12,1 Z M12,3 C7.02943725,3 3,7.02943725 3,12 C3,16.9705627 7.02943725,21 12,21 C16.9705627,21 21,16.9705627 21,12 C21,7.02943725 16.9705627,3 12,3 Z M12,15 C13.1045695,15 14,15.8954305 14,17 C14,18.1045695 13.1045695,19 12,19 C10.8954305,19 10,18.1045695 10,17 C10,15.8954305 10.8954305,15 12,15 Z M12,5 C13.2357962,5 14.237607,6.00181077 14.237607,7.23760698 C14.237607,7.32016383 14.2330381,7.40265742 14.2239212,7.48470934 L13.6656473,12.5091744 C13.571344,13.3579037 12.8539523,14 12,14 C11.1460477,14 10.428656,13.3579037 10.3343527,12.5091744 L9.77607882,7.48470934 C9.63960795,6.25647158 10.5246599,5.15015666 11.7528976,5.0136858 C11.8349496,5.00456892 11.9174431,5 12,5 Z" id="★-Icon"></path>
            </g>
        </g>
    </g>
</svg>
